<?xml version="1.0" encoding="utf-8"?>
<!-- Generator: Adobe Illustrator 17.1.0, SVG Export Plug-In . SVG Version: 6.00 Build 0)  -->
<!DOCTYPE svg PUBLIC "-//W3C//DTD SVG 1.1//EN" "http://www.w3.org/Graphics/SVG/1.1/DTD/svg11.dtd">
<svg version="1.1" id="Layer_1" xmlns="http://www.w3.org/2000/svg" xmlns:xlink="http://www.w3.org/1999/xlink" x="0px" y="0px"
	 viewBox="0 0 50 50" enable-background="new 0 0 50 50" xml:space="preserve">
<path d="M41.941,12.909l-6,1.161c-0.47,0.091-0.81,0.502-0.81,0.981v4.037h-23c-0.371,0-0.712,0.206-0.885,0.534
	s-0.149,0.726,0.061,1.031l5.528,8.055c0.187,0.272,0.495,0.435,0.824,0.435h16.284l0.006,2.219H20.132
	c-0.016,0-0.029,0.008-0.045,0.009c-0.03-0.001-0.057-0.009-0.087-0.009c-1.755,0-3.183,1.464-3.183,3.264s1.428,3.265,3.183,3.265
	c1.754,0,3.182-1.465,3.182-3.265c0-0.448-0.089-0.875-0.249-1.264h8.221c-0.16,0.389-0.249,0.816-0.249,1.264
	c0,1.8,1.428,3.265,3.182,3.265s3.182-1.465,3.182-3.265c0-1.083-0.523-2.038-1.317-2.632l-0.007-2.85h0.188c0.553,0,1-0.447,1-1
	v-8.055c0-0.028-0.014-0.051-0.016-0.079c0.002-0.027,0.016-0.051,0.016-0.079v-4.055l5.19-1.005
	c0.542-0.104,0.896-0.629,0.791-1.172C43.009,13.158,42.487,12.799,41.941,12.909z M20,35.891c-0.652,0-1.183-0.567-1.183-1.265
	s0.53-1.264,1.183-1.264c0.651,0,1.182,0.566,1.182,1.264S20.651,35.891,20,35.891z M34.087,35.891
	c-0.651,0-1.182-0.567-1.182-1.265s0.53-1.264,1.182-1.264s1.182,0.566,1.182,1.264S34.738,35.891,34.087,35.891z M14.031,21.089
	h21.101v6.055H18.187L14.031,21.089z"/>
</svg>
