<?xml version="1.0" encoding="utf-8"?>
<!-- Generator: Adobe Illustrator 17.1.0, SVG Export Plug-In . SVG Version: 6.00 Build 0)  -->
<!DOCTYPE svg PUBLIC "-//W3C//DTD SVG 1.1//EN" "http://www.w3.org/Graphics/SVG/1.1/DTD/svg11.dtd">
<svg version="1.1" id="Layer_1" xmlns="http://www.w3.org/2000/svg" xmlns:xlink="http://www.w3.org/1999/xlink" x="0px" y="0px"
	 viewBox="0 0 50 50" enable-background="new 0 0 50 50" xml:space="preserve">
<path d="M41.798,33.763v-18c0-0.513-0.39-0.919-0.887-0.977c-0.009-0.002-0.017-0.004-0.025-0.005
	c-0.03-0.003-0.057-0.018-0.088-0.018h-30c-0.032,0-0.06,0.015-0.091,0.018c-0.065,0.006-0.126,0.019-0.189,0.038
	c-0.065,0.019-0.125,0.041-0.183,0.072c-0.053,0.028-0.1,0.062-0.147,0.099c-0.056,0.044-0.105,0.09-0.151,0.145
	c-0.019,0.023-0.045,0.035-0.062,0.06c-0.019,0.027-0.022,0.06-0.038,0.088c-0.034,0.06-0.059,0.12-0.08,0.187
	c-0.02,0.065-0.033,0.129-0.039,0.196c-0.003,0.033-0.019,0.062-0.019,0.096v18c0,0.553,0.447,1,1,1h30
	C41.351,34.763,41.798,34.315,41.798,33.763z M37.502,16.763l-11.745,8.092l-11.745-8.092H37.502z M11.798,32.763V17.666
	l13.392,9.227c0.171,0.118,0.369,0.177,0.567,0.177s0.396-0.059,0.567-0.177l13.474-9.283v15.153H11.798z"/>
</svg>
