<?xml version="1.0" encoding="utf-8"?>
<!-- Generator: Adobe Illustrator 17.1.0, SVG Export Plug-In . SVG Version: 6.00 Build 0)  -->
<!DOCTYPE svg PUBLIC "-//W3C//DTD SVG 1.1//EN" "http://www.w3.org/Graphics/SVG/1.1/DTD/svg11.dtd">
<svg version="1.1" id="Layer_1" xmlns="http://www.w3.org/2000/svg" xmlns:xlink="http://www.w3.org/1999/xlink" x="0px" y="0px"
	 viewBox="0 0 50 50" enable-background="new 0 0 50 50" xml:space="preserve">
<path d="M24.43,40.153c0.186,0.276,0.497,0.441,0.829,0.441h0c0.333,0,0.644-0.166,0.829-0.441l9.436-14.018
	c1.128-1.799,1.725-3.865,1.725-5.976c0-6.376-5.383-11.564-12-11.564s-12,5.188-12,11.564c0,2.114,0.599,4.184,1.749,6.012
	L24.43,40.153z M25.25,10.594c5.514,0,10,4.291,10,9.564c0,1.734-0.491,3.433-1.402,4.886l-8.59,12.76l-8.584-12.726
	c-0.932-1.482-1.424-3.183-1.424-4.92C15.25,14.885,19.736,10.594,25.25,10.594z"/>
<path d="M25.25,25.616c3.135,0,5.686-2.467,5.686-5.5s-2.55-5.5-5.686-5.5s-5.686,2.467-5.686,5.5S22.115,25.616,25.25,25.616z
	 M25.25,16.616c2.032,0,3.686,1.57,3.686,3.5s-1.653,3.5-3.686,3.5s-3.686-1.57-3.686-3.5S23.218,16.616,25.25,16.616z"/>
</svg>
