<svg viewBox="0 0 50 50" xml:space="preserve" xmlns="http://www.w3.org/2000/svg">
    <path fill="none" d="M0 0h50v50H0z"/>
    <path d="M10 33H3c-1.103 0-2-.898-2-2V19c0-1.102.897-2 2-2h7" fill="none" stroke="#000" stroke-linejoin="round" stroke-miterlimit="10" stroke-width="2.08"/>
    <path d="M9.604 32.43C9.256 32.129 9 31.391 9 30.754V19.247c0-.637.256-1.388.604-1.689l12.67-12.632C23.905 3.27 26 3.898 26 6.327v36.988c0 2.614-1.896 3.604-3.785 1.686L9.604 32.43z" fill="none" stroke="#000" stroke-linejoin="round" stroke-miterlimit="10" stroke-width="1.98"/>
    <path d="M30.688 19.417C33.167 20.064 35 22.32 35 25s-1.833 4.936-4.312 5.584" fill="none" stroke="#000" stroke-linecap="round" stroke-linejoin="round" stroke-miterlimit="10" stroke-width="2"/>
    <path d="M34.92 13.142A13.461 13.461 0 0 1 42 25c0 5.111-2.85 9.557-7.045 11.835" fill="none" stroke="#000" stroke-linecap="round" stroke-linejoin="round" stroke-miterlimit="10" stroke-width="2"/>
</svg>
