<svg xmlns="http://www.w3.org/2000/svg" viewBox="0 0 24 24" xml:space="preserve">
    <path d="M4.8 21c-.4 0-.8-.3-1-.7V17.4c0-.2 0-.6.2-.9.2-.2.4-.3.6-.4h.2c.4-.1.7-.2 1-.3.5-.3.9-.8 1.1-1.4H2.3c-.2 0-.4 0-.6-.1-.7-.2-1.1-.8-1.1-1.5v-8c0-.4 0-1 .5-1.5.2-.2.6-.3.9-.3h7.7c1.1 0 1.6.6 1.6 1.9V14c0 2-.8 3.8-2.3 5.2l-.2.2c-.9.7-1.7 1.1-2.6 1.4-.4.1-.9.1-1.2.2h-.2zm0-1v.5-.5c.4-.1.8-.1 1.1-.2.8-.2 1.5-.6 2.2-1.2l.2-.2c1.3-1.2 2-2.7 2-4.5V4.8c0-.8-.2-.8-.5-.8H2c-.1 0-.2 0-.3.2-.2.1-.2.2-.2.7v8c0 .2.2.4.4.5h5.5c.2 0 .3.1.4.2.2.1.2.3.2.4l-.1.4c-.2 1-.8 1.7-1.6 2.2-.4.3-.9.4-1.3.5h-.2s-.1 0-.1.1v1l.1 1.8zM17 21c-.4 0-.8-.3-1-.7V17.4c0-.2 0-.6.2-.9.2-.2.4-.3.6-.4h.2c.4-.1.7-.2 1-.3.5-.3.9-.8 1.1-1.4h-4.6c-.2 0-.4 0-.6-.1-.7-.2-1.1-.8-1.1-1.5v-8c0-.4 0-1 .5-1.5.3-.3.6-.4 1-.4H22c1.1 0 1.6.6 1.6 1.9V13.9c0 2-.8 3.8-2.3 5.2l-.3.2-.1.1c-.8.7-1.7 1.1-2.6 1.3-.4.1-.8.2-1.2.2 0 .1-.1.1-.1.1zm0-1v.5-.5c.4-.1.8-.1 1.1-.2.8-.2 1.5-.6 2.2-1.2l.2-.2c1.3-1.2 2-2.7 2-4.5V4.8c0-.8-.2-.8-.6-.8h-7.7c-.1 0-.2 0-.3.1-.1.1-.2.3-.2.7v8c0 .2.2.4.4.5h5.5c.2 0 .3.1.4.2.1.1.1.3.1.4l-.1.4c-.2 1-.8 1.7-1.6 2.2-.4.2-.8.4-1.3.5h-.2s-.1 0-.1.1v.4L17 20z"/>
</svg>
