<?xml version="1.0" encoding="UTF-8" standalone="no"?>
<!-- Created with Inkscape (http://www.inkscape.org/) -->

<svg
   xmlns:dc="http://purl.org/dc/elements/1.1/"
   xmlns:cc="http://creativecommons.org/ns#"
   xmlns:rdf="http://www.w3.org/1999/02/22-rdf-syntax-ns#"
   xmlns:svg="http://www.w3.org/2000/svg"
   xmlns="http://www.w3.org/2000/svg"
   xmlns:sodipodi="http://sodipodi.sourceforge.net/DTD/sodipodi-0.dtd"
   xmlns:inkscape="http://www.inkscape.org/namespaces/inkscape"
   id="svg2"
   version="1.1"
   inkscape:version="0.91 r13725"
   width="410.42029"
   height="450.50851"
   viewBox="0 0 410.42028 450.50852"
   sodipodi:docname="cart.svg">
  <metadata
     id="metadata8">
    <rdf:RDF>
      <cc:Work
         rdf:about="">
        <dc:format>image/svg+xml</dc:format>
        <dc:type
           rdf:resource="http://purl.org/dc/dcmitype/StillImage" />
        <dc:title></dc:title>
      </cc:Work>
    </rdf:RDF>
  </metadata>
  <defs
     id="defs6" />
  <sodipodi:namedview
     pagecolor="#ffffff"
     bordercolor="#666666"
     borderopacity="1"
     objecttolerance="10"
     gridtolerance="10"
     guidetolerance="10"
     inkscape:pageopacity="0"
     inkscape:pageshadow="2"
     inkscape:window-width="2560"
     inkscape:window-height="1391"
     id="namedview4"
     showgrid="false"
     fit-margin-top="50"
     fit-margin-left="0"
     fit-margin-right="0"
     fit-margin-bottom="50"
     inkscape:zoom="0.65186406"
     inkscape:cx="657.7526"
     inkscape:cy="496.57728"
     inkscape:window-x="0"
     inkscape:window-y="0"
     inkscape:window-maximized="1"
     inkscape:current-layer="svg2" />
  <path
     style="fill:#000000"
     d="m 150.31135,399.86319 c -12.06557,-3.0499 -24.6715,-13.3048 -29.78335,-24.2286 -8.20764,-17.5393 -5.43256,-34.1537 8.04981,-48.1942 17.95603,-18.6993 44.00275,-18.6993 61.95878,0 10.01817,10.4329 14.577,23.9902 12.1614,36.1663 -4.02336,20.28 -21.34936,35.9017 -40.85027,36.8318 -4.28479,0.2044 -9.47615,-0.054 -11.53637,-0.5753 z m 21.24585,-17.0584 c 5.56792,-2.5175 10.52588,-7.1669 13.24572,-12.4215 2.94826,-5.6958 3.52276,-16.6702 1.23349,-23.5626 -6.14097,-18.4887 -32.35108,-24.1607 -46.45803,-10.0538 -6.20141,6.2014 -8.44441,12.6682 -7.80249,22.4955 1.04065,15.9317 11.51727,25.577 27.78131,25.577 5.40139,0 8.75917,-0.5693 12,-2.0346 z m 154.75415,17.0584 c -16.898,-4.2715 -30.6923,-19.24 -33.9692,-36.8608 -3.9842,-21.424 13.7084,-44.9185 36.9651,-49.0869 12.96681,-2.324 26.85531,2.7215 37.22931,13.5249 10.0182,10.4329 14.577,23.9902 12.1614,36.1663 -4.0233,20.28 -21.3493,35.9017 -40.8502,36.8318 -4.28481,0.2044 -9.47621,-0.054 -11.53641,-0.5753 z m 21.24591,-17.0584 c 9.7616,-4.4136 15.0468,-12.298 15.7813,-23.5424 0.8222,-12.588 -4.0659,-21.9559 -14.113,-27.0471 -11.3075,-5.7299 -25.24521,-3.8503 -33.63081,4.5353 -6.2188,6.2188 -8.4614,12.6754 -7.8189,22.5118 1.0407,15.9317 11.5173,25.577 27.7814,25.577 5.40131,0 8.75911,-0.5693 12.00001,-2.0346 z M 164.0104,288.56839 c -5.40222,-2.1012 -10.11228,-5.5847 -12.75128,-9.4307 -1.41687,-2.0649 -22.18201,-50.3294 -46.14476,-107.25439 C 81.15161,114.9583 60.787291,67.820801 59.860331,67.133301 c -1.24589,-0.92404 -8.40329,-1.25 -27.44721,-1.25 -17.01676,0 -26.6034901,-0.38349 -28.2412801,-1.12972 -5.71698,-2.60483 -5.51005,-11.42832 0.32471,-13.84516 1.91526,-0.79332 11.0774101,-1.05076 29.7457301,-0.83578 l 26.97795,0.31066 4.82112,3 c 2.65162,1.65 6.06922,4.575 7.59466,6.5 1.59027,2.0068 21.341089,47.597819 46.295169,106.863579 23.93689,56.84998 44.28986,104.21251 45.22881,105.25001 1.64776,1.8208 4.70667,1.8864 87.87786,1.8864 l 86.17071,0 2.1658,-2.3054 c 2.7409,-2.9175 54.1829,-129.66656 54.1829,-133.50231 0,-1.67535 -0.9462,-3.73249 -2.3029,-5.00709 l -2.3029,-2.16344 -133.28381,-0.26087 -133.28381,-0.26088 -2.50569,-2.91315 c -2.95642,-3.43717 -2.6225,-8.00122 0.79285,-10.83685 1.98443,-1.6476 9.89863,-1.74871 135.24695,-1.72804 150.94161,0.0249 137.28741,-0.77281 145.44741,8.49738 4.8756,5.53903 7.6779,13.56868 6.937,19.87714 -0.2651,2.25694 -12.3473,33.35352 -26.8494,69.10352 -28.3676,69.93089 -28.302,69.80079 -37.566,74.53289 l -4.8297,2.4671 -87.00011,0.1851 c -65.05902,0.1384 -87.76834,-0.1138 -90.04675,-1 z"
     id="path4298"
     inkscape:connector-curvature="0" />
</svg>
