<?xml version="1.0" encoding="UTF-8" standalone="no"?>
<!-- Created with Inkscape (http://www.inkscape.org/) -->

<svg
   xmlns:dc="http://purl.org/dc/elements/1.1/"
   xmlns:cc="http://creativecommons.org/ns#"
   xmlns:rdf="http://www.w3.org/1999/02/22-rdf-syntax-ns#"
   xmlns:svg="http://www.w3.org/2000/svg"
   xmlns="http://www.w3.org/2000/svg"
   xmlns:sodipodi="http://sodipodi.sourceforge.net/DTD/sodipodi-0.dtd"
   xmlns:inkscape="http://www.inkscape.org/namespaces/inkscape"
   id="svg2"
   version="1.1"
   inkscape:version="0.91 r13725"
   width="597.50281"
   height="694.88513"
   viewBox="0 0 597.5028 694.88514"
   sodipodi:docname="categories.svg">
  <metadata
     id="metadata8">
    <rdf:RDF>
      <cc:Work
         rdf:about="">
        <dc:format>image/svg+xml</dc:format>
        <dc:type
           rdf:resource="http://purl.org/dc/dcmitype/StillImage" />
        <dc:title></dc:title>
      </cc:Work>
    </rdf:RDF>
  </metadata>
  <defs
     id="defs6" />
  <sodipodi:namedview
     pagecolor="#ffffff"
     bordercolor="#666666"
     borderopacity="1"
     objecttolerance="10"
     gridtolerance="10"
     guidetolerance="10"
     inkscape:pageopacity="0"
     inkscape:pageshadow="2"
     inkscape:window-width="2560"
     inkscape:window-height="1391"
     id="namedview4"
     showgrid="false"
     fit-margin-top="80"
     fit-margin-left="0"
     fit-margin-right="0"
     fit-margin-bottom="80"
     inkscape:zoom="0.65186406"
     inkscape:cx="792.8093"
     inkscape:cy="541.15982"
     inkscape:window-x="0"
     inkscape:window-y="0"
     inkscape:window-maximized="1"
     inkscape:current-layer="svg2" />
  <path
     style="fill:#000000"
     d="m 309.4371,613.71179 c -5.6657,-1.6973 -12.785,-7.2092 -16.6305,-12.8756 l -3.5366,-5.2112 -0.3731,-30.8683 c -0.3462,-28.6335 -0.1958,-31.2127 2.0779,-35.625 2.8899,-5.608 9.0568,-11.677 15.1702,-14.9292 4.1733,-2.2202 10.3348,-2.3432 133.645,-2.6683 142.1138,-0.3748 137.1563,-0.6174 146.5548,7.1709 2.516,2.0851 6.0317,6.7148 7.8125,10.2884 3.1908,6.4031 3.2376,6.8975 3.2255,34.0645 -0.011,26.3719 -0.1403,27.838 -2.9669,33.817 -3.5512,7.5118 -8.217,12.1045 -15.7709,15.5239 -5.5471,2.511 -7.4248,2.5451 -135.625,2.4663 -71.5,-0.044 -131.6123,-0.563 -133.5829,-1.1534 z m 264.7437,-21.926 c 1.6633,-1.6634 1.9613,-6.0202 1.9451,-28.4375 -0.01,-14.5603 -0.5524,-27.317 -1.2042,-28.3483 -1.0388,-1.6434 -17.1726,-1.9157 -130.6559,-2.2047 -88.5614,-0.2255 -130.2449,0.085 -131.9208,0.9815 -2.3207,1.242 -2.45,2.7799 -2.45,29.1422 0,19.9797 0.4232,28.2542 1.5,29.331 1.1474,1.1474 31.9802,1.5 131.1608,1.5 116.2067,0 129.8645,-0.2038 131.625,-1.9642 z m -383.0462,-30.8483 c -4.5643,-2.737 -8.013,-6.0695 -10.5697,-10.2138 l -3.7949,-6.1513 -0.3346,-98.5362 -0.3347,-98.5362 10.6472,0 10.6471,0 0,26.25 0,26.25 34.375,0 34.375,0 0,10.625 0,10.625 -34.375,0 -34.375,0 0,59.75 c 0,44.8056 0.3752,60.1252 1.5,61.25 1.0907,1.0907 10.4723,1.5 34.375,1.5 l 32.875,0 0,10.625 0,10.625 -34.1178,0 -34.1177,0 -6.7749,-4.0625 z m 118.4957,-91.1795 c -5.8224,-1.5482 -15.3188,-9.8012 -18.5375,-16.1104 -2.2255,-4.3623 -2.4478,-7.4745 -2.4478,-34.2726 0,-33.1067 0.3133,-34.5377 9.5201,-43.4802 9.0876,-8.8267 1.6783,-8.3955 144.1401,-8.3878 84.4681,0.01 129.8034,0.4482 132.8708,1.3001 7.3834,2.0505 14.949,8.5582 18.8354,16.2015 l 3.4914,6.8664 -0.3664,28.8525 -0.3664,28.8524 -3.7795,6.1089 c -4.3746,7.0706 -11.7945,12.7357 -18.8126,14.3634 -6.8181,1.5812 -258.5471,1.3013 -264.5476,-0.2942 z m 264.5505,-21.7222 c 2.9331,-2.9332 2.9331,-54.3883 0,-57.3215 -1.7605,-1.7604 -15.4183,-1.9643 -131.625,-1.9643 -99.1806,0 -130.0134,0.3527 -131.1608,1.5 -1.0767,1.0768 -1.5,9.3474 -1.5,29.3129 0,25.1698 0.2079,27.934 2.1875,29.087 1.4464,0.8424 45.8849,1.287 131.1608,1.3121 115.6144,0.034 129.1766,-0.1654 130.9375,-1.9262 z M 160.9783,323.73969 c -2.4979,-1.3199 -6.827,-4.996 -9.6201,-8.1692 -7.1489,-8.1215 -8.0469,-13.4123 -7.5227,-44.3205 0.4307,-25.39599 0.4655,-25.67768 3.8999,-31.52013 3.9141,-6.65841 9.9305,-11.72904 16.8446,-14.19642 3.8001,-1.35613 29.374,-1.68412 134.7784,-1.72858 l 130.0884,-0.0549 6.778,3.4375 c 7.5533,3.83067 14.0708,11.42746 16.1132,18.78157 2.078,7.48206 1.6768,53.91846 -0.5195,60.14366 -2.6562,7.5283 -7.3275,13.0295 -14.2747,16.8106 l -6.1121,3.3266 -132.9558,-0.055 c -128.6381,-0.053 -133.1034,-0.1332 -137.4976,-2.4551 z m 269.6427,-20.5411 c 2.7462,-3.756 2.578,-53.46604 -0.1902,-56.2343 -1.7607,-1.7607 -15.3962,-1.9623 -131.5625,-1.94515 -79.3393,0.0113 -130.3254,0.47803 -131.4733,1.20244 -1.5438,0.97432 -1.9434,5.64934 -2.2625,26.47171 -0.2132,13.9086 -0.056,26.6106 0.3499,28.2267 0.4056,1.616 1.9862,3.4449 3.5125,4.064 1.5973,0.648 57.3324,1.0229 131.3136,0.8834 125.6501,-0.2369 128.5783,-0.2969 130.3125,-2.6688 z M 48.855496,275.49579 c -3.5917,-1.7898 -7.9035,-5.0545 -9.5817,-7.2548 -6.3683,-8.3492 -6.8788,-11.27689 -6.8788,-39.45084 l 0,-26.29015 10.625,0 10.625,0 0,26 c 0,18.55555 0.4295,26.42949 1.5,27.5 1.0907,1.09063 10.4723,1.5 34.375004,1.5 l 32.875,0 0,10.62499 0,10.625 -33.5045,0 -33.504604,0 -6.5304,-3.2542 z M 17.308876,180.03101 C 10.532056,176.44828 3.8966359,168.90259 1.6955759,162.27582 0.07934587,157.4098 -0.20764413,151.3681 0.11974587,129.10065 0.49163587,103.80677 0.71653587,101.50759 3.2894259,96.69681 6.7921259,90.14745 14.698276,83.32918 20.968096,81.4507 24.507996,80.39012 60.754596,80 155.7534,80 l 129.9434,0 6.778,3.4375 c 8.6115,4.36734 14.2505,11.69007 16.1876,21.02118 0.9241,4.45152 1.2928,15.98334 1.0098,31.58863 -0.4954,27.31651 -1.2414,30.20028 -9.9801,38.57684 -8.7231,8.36161 0.2198,7.88157 -145.6944,7.8206 C 26.882396,182.39165 21.597596,182.29832 17.308876,180.03101 Z M 287.4952,157.8617 c 0.7804,-2.05281 1.1377,-13.40331 0.9065,-28.79752 -0.3144,-20.93436 -0.7119,-25.61761 -2.2567,-26.59256 -1.148,-0.72457 -52.3788,-1.19076 -132.1435,-1.20248 -127.523604,-0.0187 -130.295804,0.0318 -131.562504,2.39868 -1.9148,3.57795 -1.7291,54.14706 0.206,56.08218 1.1476,1.14759 32.2847,1.5 132.531004,1.5 l 131.0309,0 1.2883,-3.3883 z"
     id="path4234"
     inkscape:connector-curvature="0" />
</svg>
