<?xml version="1.0" encoding="UTF-8" standalone="no"?>
<!-- Created with Inkscape (http://www.inkscape.org/) -->

<svg
   xmlns:dc="http://purl.org/dc/elements/1.1/"
   xmlns:cc="http://creativecommons.org/ns#"
   xmlns:rdf="http://www.w3.org/1999/02/22-rdf-syntax-ns#"
   xmlns:svg="http://www.w3.org/2000/svg"
   xmlns="http://www.w3.org/2000/svg"
   xmlns:sodipodi="http://sodipodi.sourceforge.net/DTD/sodipodi-0.dtd"
   xmlns:inkscape="http://www.inkscape.org/namespaces/inkscape"
   id="svg2"
   version="1.1"
   inkscape:version="0.91 r13725"
   width="451.8739"
   height="421.69165"
   viewBox="0 0 451.87389 421.69166"
   sodipodi:docname="checkout.svg">
  <metadata
     id="metadata8">
    <rdf:RDF>
      <cc:Work
         rdf:about="">
        <dc:format>image/svg+xml</dc:format>
        <dc:type
           rdf:resource="http://purl.org/dc/dcmitype/StillImage" />
        <dc:title></dc:title>
      </cc:Work>
    </rdf:RDF>
  </metadata>
  <defs
     id="defs6" />
  <sodipodi:namedview
     pagecolor="#ffffff"
     bordercolor="#666666"
     borderopacity="1"
     objecttolerance="10"
     gridtolerance="10"
     guidetolerance="10"
     inkscape:pageopacity="0"
     inkscape:pageshadow="2"
     inkscape:window-width="2560"
     inkscape:window-height="1391"
     id="namedview4"
     showgrid="false"
     fit-margin-top="20"
     fit-margin-left="20"
     fit-margin-right="20"
     fit-margin-bottom="20"
     inkscape:zoom="0.921875"
     inkscape:cx="251.69614"
     inkscape:cy="542.93263"
     inkscape:window-x="0"
     inkscape:window-y="0"
     inkscape:window-maximized="1"
     inkscape:current-layer="svg2" />
  <path
     style="fill:#000000"
     d="m 173.61969,400.21546 c -11.65649,-3.1187 -23.26041,-12.91285 -28.55249,-24.09938 -8.01463,-16.94154 -4.6524,-35.23028 8.98364,-48.86632 17.57542,-17.57542 41.55665,-17.57542 59.14067,0 17.69829,17.68964 17.69829,43.44806 0,61.1377 -6.70385,6.70057 -14.24769,10.87155 -22.45831,12.41716 -7.00923,1.31946 -10.4185,1.20209 -17.11351,-0.58916 z M 192.72047,384.66 c 6.76469,-2.3057 11.5917,-6.53838 14.81686,-12.99249 2.64019,-5.28349 3.08236,-7.27013 3.08236,-13.8489 0,-17.69484 -11.58113,-28.86164 -28.84131,-27.80946 -15.12372,0.92193 -24.12638,10.18263 -24.98331,25.69938 -0.80049,14.49489 4.91815,24.02185 17.27782,28.784 3.99379,1.5388 14.35136,1.63182 18.64758,0.16747 z m 158.21605,16.1126 c -21.3149,-4.21329 -38.3677,-28.44689 -34.5319,-49.07303 3.5482,-19.07949 18.4127,-34.06674 36.8116,-37.11553 11.7494,-1.94694 24.3435,2.28159 34.00227,11.41644 19.221,18.17849 19.1357,46.06486 -0.1951,63.73207 -10.91107,9.97222 -22.91327,13.64404 -36.08687,11.04005 z m 17.811,-16.48189 c 6.3877,-2.17648 11.3205,-6.64521 14.4928,-13.12917 2.27537,-4.6507 2.74777,-6.94462 2.74777,-13.34293 0,-17.1747 -10.79437,-28.03954 -27.79657,-27.97804 -10.1324,0.0367 -19.0136,5.41514 -23.9067,14.47804 -2.9531,5.46966 -3.1328,21.18097 -0.3032,26.5 3.5983,6.76388 9.7609,11.97568 16.6316,14.06566 4.2869,1.30402 13.445,1.00427 18.1343,-0.59356 z M 188.07289,288.50372 c -5.40475,-2.10229 -10.11291,-5.58553 -12.74715,-9.43075 -1.41459,-2.0649 -21.99371,-48.30436 -45.73137,-102.75436 -23.73766,-54.45 -43.862565,-99.787502 -44.722015,-100.750002 -1.41854,-1.58862 -4.17211,-1.75 -29.8606,-1.75 -18.90166,0 -29.12126,-0.37512 -30.77742,-1.12972 -3.51931,-1.60351 -5.1954,-6.05399 -3.66837,-9.74056 0.6539,-1.57865 2.30467,-3.37865 3.66837,-4 1.65265,-0.753 11.74142,-1.12972 30.25427,-1.12972 31.88042,0 34.18873,0.41521 41.27502,7.42439 4.02381,3.98002 7.674025,11.92159 47.856065,104.117662 23.925,54.89495 44.32016,100.85501 45.32258,102.13347 l 1.82258,2.32448 85.80498,0 c 67.44819,0 86.01719,-0.26742 86.79699,-1.25 1.1131,-1.4025 50.67897,-115.87353 52.91257,-122.20017 1.6372,-4.6371 1.1413,-7.74879 -1.6852,-10.57527 -1.8107,-1.81078 -3.3807,-1.97456 -18.9275,-1.97456 -10.4698,0 -17.90107,-0.43202 -19.43237,-1.12972 -5.5538,-2.53049 -5.5538,-11.21007 0,-13.74056 1.5298,-0.697 8.87717,-1.12598 19.18237,-1.11995 15.4874,0.009 17.0754,0.18317 21.82,2.39239 8.4172,3.91925 14.5603,14.19444 14.6367,24.48173 0.038,5.17905 -2.0271,10.40219 -26.542,67.11611 -17.265,39.94169 -27.68187,62.81973 -29.71667,65.26484 -1.7231,2.07066 -5.0144,4.77066 -7.3139,6 l -4.1811,2.23516 -86.50003,0.18511 c -64.67634,0.13841 -87.2687,-0.11388 -89.5468,-1 z m 85.08572,-103.7324 c -34.79993,-5.44973 -63.23087,-32.56603 -70.09945,-66.85807 -1.99166,-9.94356 -1.5526,-26.183262 0.96235,-35.594642 0.88185,-3.3 3.92159,-10.725 6.75499,-16.5 4.63601,-9.44905 6.21218,-11.56053 15.74742,-21.09577 9.53524,-9.53524 11.64672,-11.11141 21.09577,-15.74742 13.16384,-6.4586 19.73763,-8.22242 33.09464,-8.87962 38.43819,-1.89127 73.82759,24.40619 84.07329,62.47383 3.2096,11.92521 2.9748,29.851682 -0.5444,41.556452 -8.6932,28.91351 -29.6889,49.92446 -58.1218,58.16399 -9.81923,2.8455 -23.87879,3.90382 -32.96281,2.48125 z m 26.76367,-16.54295 c 3.95858,-0.87463 10.99713,-3.40471 15.64124,-5.6224 11.2367,-5.36585 22.8187,-16.72495 28.3324,-27.78736 20.0904,-40.308002 -0.5643,-87.408742 -42.80386,-97.609442 -9.06764,-2.1898 -24.90249,-2.20374 -33.47237,-0.0295 -24.06039,6.10439 -42.53452,24.57852 -48.63891,48.63891 -2.17427,8.56988 -2.16033,24.404732 0.0295,33.472372 5.88537,24.37046 25.56942,43.73829 49.79847,48.9985 8.64795,1.8775 22.46227,1.85036 31.11356,-0.0611 z m -19.98141,-15.59849 c -1.19835,-0.57936 -2.71545,-2.3489 -3.37132,-3.93232 -0.6761,-1.63224 -1.95591,-2.87895 -2.95539,-2.87895 -3.29194,0 -17.80444,-8.01953 -20.90691,-11.55305 -5.48799,-6.25048 -2.91317,-14.44695 4.53833,-14.44695 2.73946,0 7.37411,3.03148 7.37411,4.82335 0,0.87801 4.58001,3.68627 8.34901,5.11924 l 2.65099,1.00791 0,-10.47525 c 0,-8.52525 -0.27225,-10.47525 -1.46249,-10.47525 -6.70732,0 -20.53241,-9.35021 -23.17439,-15.673352 -4.61523,-11.04581 2.82127,-24.97389 16.69434,-31.26738 2.4434,-1.10844 5.23004,-2.02523 6.19254,-2.03731 1.06178,-0.0133 1.75,-0.78999 1.75,-1.97491 0,-6.07917 5.62707,-10.27259 10.87028,-8.10078 2.73736,1.13385 5.12972,4.62194 5.12972,7.47921 0,0.81052 2.64068,1.99081 6.75,3.01699 8.60638,2.14919 14.63843,5.67623 17.75063,10.37917 3.6696,5.54515 4.0925,9.15457 1.4641,12.4961 -1.8617,2.36668 -2.8095,2.74071 -6.29553,2.48421 -3.42379,-0.25191 -4.48869,-0.88199 -6.42571,-3.80195 -2.27627,-3.43136 -8.02896,-6.92186 -11.49349,-6.97378 -1.55079,-0.0232 -1.75,1.1027 -1.75,9.89092 l 0,9.91713 5.02152,1.07693 c 22.98171,4.928682 30.17721,25.835292 13.94046,40.504192 -4.34025,3.92115 -13.13172,8.55784 -16.25849,8.57484 -0.98808,0.005 -2.55792,1.33644 -3.48852,2.95793 -2.59994,4.53013 -6.58852,5.94454 -10.89379,3.86311 z m 17.68968,-23.93753 c 4.24503,-2.38584 5.98914,-5.38484 5.98914,-10.29835 0,-4.17544 -1.78861,-5.68452 -7.50055,-6.32834 l -4.49945,-0.50715 0,9.63005 c 0,6.40955 0.37249,9.63005 1.11385,9.63005 0.61261,0 2.81627,-0.95682 4.89701,-2.12626 z m -22.01086,-43.321722 0,-9.44798 -2.87746,1.00309 c -5.66012,1.97313 -9.34291,8.74406 -7.068,12.99477 1.05662,1.97432 6.07187,4.7768 8.69546,4.85896 0.91456,0.0286 1.25,-2.49625 1.25,-9.40884 z M 143.94087,136.62988 c -3.26385,-1.57794 -4.84854,-6.12391 -3.37491,-9.68155 1.93538,-4.67243 4.34707,-5.12972 27.05373,-5.12972 22.70666,0 25.11835,0.45729 27.05373,5.12972 1.52703,3.68657 -0.14906,8.13705 -3.66837,9.74056 -3.23381,1.47342 -44.00019,1.42231 -47.06418,-0.059 z"
     id="path4349"
     inkscape:connector-curvature="0" />
</svg>
