<svg xmlns="http://www.w3.org/2000/svg" width="451.874" height="421.692">
    <path style="fill:#000" d="M173.62 400.215c-11.657-3.118-23.26-12.912-28.553-24.099-8.014-16.941-4.652-35.23 8.984-48.866 17.575-17.576 41.556-17.576 59.14 0 17.699 17.69 17.699 43.448 0 61.137-6.703 6.701-14.247 10.872-22.458 12.418-7.009 1.32-10.418 1.202-17.113-.59zm19.1-15.555c6.765-2.306 11.592-6.538 14.817-12.992 2.64-5.284 3.083-7.27 3.083-13.85 0-17.694-11.581-28.861-28.842-27.809-15.123.922-24.126 10.183-24.983 25.7-.8 14.494 4.918 24.021 17.278 28.784 3.994 1.538 14.351 1.631 18.647.167zm158.217 16.113c-21.315-4.214-38.368-28.447-34.532-49.073 3.548-19.08 18.412-34.067 36.811-37.116 11.75-1.947 24.344 2.282 34.002 11.416 19.221 18.179 19.136 46.065-.195 63.733-10.91 9.972-22.913 13.644-36.086 11.04zm17.81-16.482c6.388-2.177 11.321-6.646 14.493-13.13 2.276-4.65 2.748-6.944 2.748-13.342 0-17.175-10.794-28.04-27.796-27.978-10.133.036-19.014 5.415-23.907 14.478-2.953 5.47-3.133 21.18-.303 26.5 3.598 6.763 9.76 11.975 16.631 14.065 4.287 1.304 13.445 1.005 18.135-.593zm-180.674-95.787c-5.405-2.103-10.113-5.586-12.747-9.431-1.415-2.065-21.994-48.304-45.732-102.754-23.737-54.45-43.862-99.788-44.722-100.75-1.418-1.589-4.172-1.75-29.86-1.75-18.902 0-29.122-.376-30.778-1.13-3.519-1.604-5.195-6.054-3.668-9.74.654-1.58 2.305-3.38 3.668-4 1.653-.754 11.742-1.13 30.255-1.13 31.88 0 34.188.415 41.275 7.424 4.023 3.98 7.674 11.922 47.856 104.118 23.925 54.895 44.32 100.855 45.322 102.133l1.823 2.325h85.805c67.448 0 86.017-.268 86.797-1.25 1.113-1.403 50.679-115.874 52.912-122.2 1.638-4.638 1.142-7.75-1.685-10.576-1.81-1.81-3.38-1.974-18.927-1.974-10.47 0-17.901-.432-19.433-1.13-5.553-2.53-5.553-11.21 0-13.74 1.53-.698 8.877-1.127 19.183-1.12 15.487.008 17.075.183 21.82 2.392 8.417 3.919 14.56 14.194 14.636 24.481.038 5.18-2.027 10.403-26.542 67.117-17.265 39.941-27.681 62.82-29.716 65.264-1.723 2.071-5.015 4.771-7.314 6l-4.181 2.236-86.5.185c-64.677.138-87.269-.114-89.547-1zm85.086-103.733c-34.8-5.45-63.231-32.566-70.1-66.858-1.991-9.943-1.552-26.183.963-35.594.881-3.3 3.921-10.725 6.755-16.5 4.636-9.45 6.212-11.56 15.747-21.096 9.535-9.535 11.647-11.112 21.096-15.748 13.164-6.458 19.737-8.222 33.094-8.88 38.439-1.89 73.828 24.407 84.074 62.475 3.21 11.925 2.974 29.851-.545 41.556-8.693 28.914-29.689 49.925-58.122 58.164-9.819 2.846-23.878 3.904-32.962 2.481zm26.763-16.543c3.959-.874 10.997-3.404 15.642-5.622 11.236-5.366 22.818-16.725 28.332-27.787 20.09-40.308-.564-87.41-42.804-97.61-9.068-2.19-24.902-2.204-33.472-.03-24.06 6.105-42.535 24.58-48.64 48.64-2.173 8.57-2.16 24.404.03 33.472 5.886 24.37 25.57 43.738 49.799 48.998 8.648 1.878 22.462 1.85 31.113-.06zm-19.981-15.598c-1.198-.58-2.716-2.349-3.371-3.932-.677-1.633-1.956-2.88-2.956-2.88-3.292 0-17.804-8.019-20.907-11.552-5.488-6.25-2.913-14.447 4.539-14.447 2.739 0 7.374 3.031 7.374 4.823 0 .878 4.58 3.686 8.349 5.12l2.65 1.007v-10.475c0-8.525-.272-10.475-1.462-10.475-6.707 0-20.532-9.35-23.174-15.674-4.615-11.046 2.821-24.974 16.694-31.267 2.444-1.109 5.23-2.025 6.193-2.037 1.061-.014 1.75-.79 1.75-1.975 0-6.08 5.627-10.273 10.87-8.101 2.737 1.134 5.13 4.622 5.13 7.48 0 .81 2.64 1.99 6.75 3.016 8.606 2.15 14.638 5.676 17.75 10.38 3.67 5.544 4.093 9.154 1.464 12.495-1.861 2.367-2.81 2.741-6.295 2.485-3.424-.252-4.489-.882-6.426-3.802-2.276-3.432-8.029-6.922-11.493-6.974-1.551-.023-1.75 1.103-1.75 9.89v9.918l5.021 1.077c22.982 4.928 30.177 25.835 13.94 40.504-4.34 3.921-13.131 8.558-16.258 8.575-.988.005-2.558 1.336-3.488 2.958-2.6 4.53-6.589 5.944-10.894 3.863zm17.69-23.938c4.245-2.385 5.989-5.384 5.989-10.298 0-4.175-1.789-5.685-7.5-6.328l-4.5-.507v9.63c0 6.41.372 9.63 1.114 9.63.612 0 2.816-.957 4.897-2.127zM275.62 85.371v-9.448l-2.878 1.003c-5.66 1.973-9.343 8.744-7.068 12.995 1.057 1.974 6.072 4.776 8.696 4.858.914.03 1.25-2.496 1.25-9.408zM143.94 136.63c-3.263-1.578-4.848-6.124-3.374-9.682 1.935-4.672 4.347-5.13 27.054-5.13 22.706 0 25.118.458 27.053 5.13 1.527 3.687-.149 8.137-3.668 9.74-3.234 1.474-44 1.423-47.064-.058z"/>
</svg>
