<?xml version="1.0" encoding="UTF-8" standalone="no"?>
<!-- Created with Inkscape (http://www.inkscape.org/) -->

<svg
   xmlns:dc="http://purl.org/dc/elements/1.1/"
   xmlns:cc="http://creativecommons.org/ns#"
   xmlns:rdf="http://www.w3.org/1999/02/22-rdf-syntax-ns#"
   xmlns:svg="http://www.w3.org/2000/svg"
   xmlns="http://www.w3.org/2000/svg"
   xmlns:sodipodi="http://sodipodi.sourceforge.net/DTD/sodipodi-0.dtd"
   xmlns:inkscape="http://www.inkscape.org/namespaces/inkscape"
   width="154.03555mm"
   height="153.88795mm"
   viewBox="0 0 545.79528 545.27228"
   id="svg2"
   version="1.1"
   inkscape:version="0.91 r13725"
   sodipodi:docname="container.svg">
  <defs
     id="defs4" />
  <sodipodi:namedview
     id="base"
     pagecolor="#ffffff"
     bordercolor="#666666"
     borderopacity="1.0"
     inkscape:pageopacity="0.0"
     inkscape:pageshadow="2"
     inkscape:zoom="1.4"
     inkscape:cx="598.88886"
     inkscape:cy="97.815052"
     inkscape:document-units="px"
     inkscape:current-layer="layer1"
     showgrid="false"
     fit-margin-top="10"
     fit-margin-left="10"
     fit-margin-right="10"
     fit-margin-bottom="10"
     inkscape:window-width="2560"
     inkscape:window-height="1391"
     inkscape:window-x="0"
     inkscape:window-y="0"
     inkscape:window-maximized="1" />
  <metadata
     id="metadata7">
    <rdf:RDF>
      <cc:Work
         rdf:about="">
        <dc:format>image/svg+xml</dc:format>
        <dc:type
           rdf:resource="http://purl.org/dc/dcmitype/StillImage" />
        <dc:title></dc:title>
      </cc:Work>
    </rdf:RDF>
  </metadata>
  <g
     inkscape:label="Layer 1"
     inkscape:groupmode="layer"
     id="layer1"
     transform="translate(584.66255,206.31975)">
    <path
       style="fill:#000000"
       d="m -508.43002,302.5808 c -25.04349,-5.62182 -44.43752,-32.50794 -40.22128,-55.75913 1.62697,-8.97219 4.41276,-15.54975 9.3813,-22.15033 8.53441,-11.33772 18.85814,-17.95788 32.82733,-21.05073 l 2.75,-0.60886 0,-136.809199 0,-136.8092 -4.75,-1.09817 c -25.56778,-5.91111 -44.08301,-31.687711 -40.21532,-55.987081 2.97708,-18.70391 17.96605,-35.85976 36.15825,-41.38547 5.55414,-1.68702 8.79211,-2.02452 16.28082,-1.69699 8.53643,0.37335 10.07418,0.76876 17.71589,4.55538 14.28259,7.0773 24.21973,18.98103 28.40159,34.02237 l 1.73667,6.24646 136.6721,0 136.6721,0 1.73667,-6.24646 c 4.23173,-15.22071 13.89442,-26.83378 28.243,-33.94379 7.81572,-3.87284 9.30605,-4.25921 17.87448,-4.63396 11.5126,-0.50352 20.27877,1.84287 29.238889,7.82621 30.68837,20.49291 31.43932,61.33858 1.52024,82.688401 -5.913409,4.21973 -17.554119,9.24052 -21.535379,9.28851 -1.65805,0.02 -1.75,7.21869 -1.75,137.00204 l 0,136.980949 2.75,0.60886 c 10.63659,2.35499 19.251769,6.86082 26.297899,13.75405 21.40085,20.93648 21.82631,49.99012 1.03605,70.74929 -20.281399,20.25107 -49.186609,20.52869 -69.284359,0.66545 -7.03225,-6.9502 -13.10739,-17.41347 -14.86269,-25.59817 l -1.10263,-5.14138 -136.81739,0 -136.8174,0 -1.2219,5.25 c -2.86797,12.32249 -13.48624,26.86151 -24.20566,33.14351 -10.62256,6.22524 -23.732,8.55674 -34.50927,6.13744 z m 20.42141,-21.85703 c 6.53065,-2.40777 11.95888,-7.24553 14.93829,-13.31333 2.51797,-5.12807 2.86715,-6.92302 2.79369,-14.36059 -0.0957,-9.69201 -1.59008,-13.97312 -6.94713,-19.90273 -5.15239,-5.70308 -12.19699,-8.42079 -21.96891,-8.4753 -12.30087,-0.0686 -20.5048,4.63704 -25.70429,14.74358 -3.01127,5.85316 -3.61872,17.64052 -1.27304,24.70272 2.20401,6.63564 9.24919,13.98614 15.5309,16.20397 5.2571,1.85608 18.06889,2.08349 22.63049,0.40168 z m 374.85262,-0.34112 c 7.16064,-2.43987 13.882679,-9.52766 16.024979,-16.8969 2.18925,-7.53076 1.57675,-18.33195 -1.36495,-24.07035 -5.162619,-10.07078 -13.366939,-14.78675 -25.696709,-14.7709 -16.85836,0.0217 -27.47451,9.30064 -29.16696,25.49313 -1.46199,13.9875 5.78598,26.22616 18.16696,30.67608 4.67194,1.67917 16.52391,1.44733 22.03668,-0.43106 z m -56.07849,-49.08518 c 3.81538,-7.41308 15.37635,-18.97405 22.78943,-22.78943 l 5.74763,-2.95819 -0.001,-139.499999 -0.001,-139.5 -6.4607,-3.34066 c -7.83309,-4.05029 -18.41856,-14.84497 -22.282,-22.72238 l -2.66719,-5.436961 -139.54168,0.002 -139.54168,0.002 -2.94529,5.747621 c -3.86728,7.54683 -16.3592,19.96578 -23.30471,23.16857 l -5.25,2.42093 0,139.71172 0,139.711709 5.75,2.79073 c 7.33738,3.56115 18.83976,15.01296 22.79181,22.69159 l 2.95819,5.74763 139.5,0 139.5,0 2.95819,-5.74763 z M -488.77921,-93.517099 c 6.43001,-1.9095 13.07319,-7.731861 16.27556,-14.264551 3.14517,-6.41601 3.22104,-19.55375 0.15112,-26.1685 -2.67579,-5.76554 -7.64057,-10.75252 -13.34014,-13.39979 -6.72616,-3.12409 -20.7851,-2.9836 -27,0.26981 -6.14711,3.21792 -8.7392,5.76312 -11.84418,11.62998 -2.32355,4.39033 -2.6468,6.15837 -2.65102,14.5 -0.004,8.67176 0.25451,9.96819 2.96958,14.87025 3.49721,6.314241 7.73664,9.817691 14.85807,12.278681 6.43256,2.22293 13.71385,2.32345 20.58101,0.28412 z m 373.74139,0.0768 c 7.09079,-2.10573 12.3643,-6.29487 15.845149,-12.586961 2.74225,-4.95698 3,-6.23909 3,-14.92289 0,-8.01583 -0.36598,-10.20303 -2.3426,-14 -5.013499,-9.63063 -12.285749,-14.0744 -24.157399,-14.76158 -13.02435,-0.75391 -23.53564,5.06678 -28.33687,15.69171 -2.72081,6.02103 -2.92509,18.59593 -0.40802,25.11667 5.03342,13.039651 21.29626,19.948311 36.39974,15.463051 z"
       id="path4371"
       inkscape:connector-curvature="0" />
  </g>
</svg>
