<?xml version="1.0" encoding="UTF-8" standalone="no"?>
<!-- Created with Inkscape (http://www.inkscape.org/) -->

<svg
   xmlns:dc="http://purl.org/dc/elements/1.1/"
   xmlns:cc="http://creativecommons.org/ns#"
   xmlns:rdf="http://www.w3.org/1999/02/22-rdf-syntax-ns#"
   xmlns:svg="http://www.w3.org/2000/svg"
   xmlns="http://www.w3.org/2000/svg"
   xmlns:sodipodi="http://sodipodi.sourceforge.net/DTD/sodipodi-0.dtd"
   xmlns:inkscape="http://www.inkscape.org/namespaces/inkscape"
   id="svg2"
   version="1.1"
   inkscape:version="0.91 r13725"
   width="511.29028"
   height="711.38916"
   viewBox="0 0 511.29028 711.38917"
   sodipodi:docname="filters.svg">
  <metadata
     id="metadata8">
    <rdf:RDF>
      <cc:Work
         rdf:about="">
        <dc:format>image/svg+xml</dc:format>
        <dc:type
           rdf:resource="http://purl.org/dc/dcmitype/StillImage" />
        <dc:title></dc:title>
      </cc:Work>
    </rdf:RDF>
  </metadata>
  <defs
     id="defs6" />
  <sodipodi:namedview
     pagecolor="#ffffff"
     bordercolor="#666666"
     borderopacity="1"
     objecttolerance="10"
     gridtolerance="10"
     guidetolerance="10"
     inkscape:pageopacity="0"
     inkscape:pageshadow="2"
     inkscape:window-width="2560"
     inkscape:window-height="1391"
     id="namedview4"
     showgrid="false"
     fit-margin-top="100"
     fit-margin-left="0"
     fit-margin-right="0"
     fit-margin-bottom="100"
     inkscape:zoom="0.65186406"
     inkscape:cx="323.0591"
     inkscape:cy="44.234159"
     inkscape:window-x="0"
     inkscape:window-y="0"
     inkscape:window-maximized="1"
     inkscape:current-layer="svg2" />
  <path
     style="fill:#000000"
     d="m 56.97054,610.14372 c -3.70425,-1.71473 -7.02544,-5.24284 -8.43339,-8.95882 -0.72702,-1.91883 -1.06661,-31.76686 -1.06661,-93.75 0,-76.78341 -0.21541,-90.9349 -1.3842,-90.9349 -0.76132,0 -5.14882,-1.88108 -9.75,-4.18017 C 25.42582,406.86812 12.67432,394.42472 7.31529,384 1.30156,372.30171 0,367.2309 0,355.5 0,343.78934 1.29025,338.74806 7.29423,327 12.6292,316.56101 25.4039,304.09486 36.33634,298.65938 c 4.60118,-2.28766 8.9818,-4.15938 9.7347,-4.15938 1.14675,0 1.41196,-14.99944 1.6342,-92.42698 0.26288,-91.58332 0.28412,-92.45218 2.32709,-95.18821 C 53.93069,101.66396 57.15462,100 63.37171,100 c 4.70771,0 6.39692,0.48999 9.28594,2.69355 7.23226,5.51631 6.81289,-0.68281 6.81289,100.70758 0,76.92306 0.21539,91.09887 1.3842,91.09887 0.76132,0 5.14882,1.87172 9.75,4.15938 10.93244,5.43548 23.70718,17.90163 29.04208,28.34062 6.004,11.74806 7.2943,16.78934 7.2943,28.5 0,11.7309 -1.3016,16.80171 -7.3153,28.5 -5.3591,10.42472 -18.11056,22.86812 -29.02108,28.31983 -4.60118,2.29909 -8.98868,4.18017 -9.75,4.18017 -1.16881,0 -1.3842,14.17581 -1.3842,91.09887 0,101.21155 0.39886,95.20691 -6.68288,100.60842 -4.07625,3.1091 -11.35802,4.00058 -15.81712,1.93643 z M 78.11465,384.54428 c 13.94402,-6.15372 20.4748,-22.60106 15.81752,-39.83534 -1.5477,-5.72728 -2.62862,-7.52238 -7.3873,-12.2682 -4.54306,-4.53078 -6.69649,-5.87206 -11.63993,-7.25 -7.703,-2.14715 -15.1658,-2.14715 -22.8688,0 -4.94924,1.37956 -7.08877,2.7139 -11.62486,7.25 -4.5361,4.53609 -5.87044,6.67562 -7.25,11.62486 -5.46862,19.61894 2.57087,36.82221 19.57835,41.89467 6.14166,1.83174 19.73461,1.07322 25.37502,-1.41599 z m 170.85586,225.59944 c -3.70419,-1.71473 -7.0254,-5.24284 -8.4334,-8.95882 -0.7416,-1.9574 -1.0666,-59.76991 -1.0666,-189.75 0,-158.54747 -0.2102,-186.9349 -1.38419,-186.9349 -0.76131,0 -5.1488,-1.88108 -9.75,-4.18017 C 217.42581,214.86812 204.67431,202.42472 199.31531,192 c -6.0138,-11.69829 -7.3153,-16.7691 -7.3153,-28.5 0,-17.40386 5.697,-30.32532 19.4211,-44.04944 13.7241,-13.72412 26.6456,-19.4211 44.0494,-19.4211 17.3842,0 30.2815,5.69523 44.0284,19.44216 9.78461,9.78459 14.88791,18.4711 17.9996,30.63786 5.207,20.35897 -1.0935,40.47214 -17.9996,57.46035 -6.69499,6.72753 -10.32679,9.46845 -16.8942,12.75 -4.6012,2.29909 -8.9887,4.18017 -9.75,4.18017 -1.174,0 -1.3842,28.41174 -1.3842,187.09887 0,208.047 0.5771,191.07102 -6.68289,196.60842 -4.07621,3.1091 -11.35801,4.00058 -15.81711,1.93643 z m 21,-417.51665 c 6.4954,-2.89143 11.8054,-8.14452 14.677,-14.51967 1.881,-4.17574 2.3006,-6.84034 2.3006,-14.6074 0,-11.13831 -2.2278,-17.40255 -8.2894,-23.30805 -6.25899,-6.09788 -12.1956,-8.1921 -23.1882,-8.17999 -11.8327,0.013 -17.94919,2.41327 -24.382,9.56801 -12.5926,14.00608 -8.8562,41.48789 6.7465,49.62163 9.4277,4.91467 22.9499,5.51449 32.1355,1.42547 z m 168.50001,418.18208 c -12.2577,-2.05191 -24.58461,-8.83701 -35.0284,-19.28077 -13.7469,-13.74692 -19.4421,-26.64425 -19.4421,-44.02838 0,-11.7309 1.3015,-16.80171 7.3153,-28.5 5.359,-10.42472 18.1105,-22.86812 29.021,-28.31983 4.6012,-2.29909 8.9852,-4.18017 9.7423,-4.18017 1.1628,0 1.4165,-29.24319 1.6342,-188.42675 l 0.2577,-188.42675 2.0618,-2.76146 c 3.918,-5.24752 7.1141,-6.88504 13.4382,-6.88504 6.3242,0 9.5203,1.63752 13.4382,6.88504 l 2.0618,2.76146 0.2578,188.42675 c 0.2177,159.18356 0.4713,188.42675 1.6342,188.42675 0.757,0 5.141,1.88108 9.7422,4.18017 6.5745,3.28513 10.1897,6.01514 16.8838,12.75 20.9708,21.09857 25.4073,45.97563 12.7254,71.35671 -5.392,10.79145 -17.8512,23.50318 -28.4429,29.01951 -11.8522,6.17282 -26.1844,8.86354 -37.3005,7.00276 z m 23.5,-34.18208 c 6.4954,-2.89143 11.8054,-8.14453 14.677,-14.51967 1.881,-4.17574 2.3006,-6.84034 2.3006,-14.6074 0,-7.76706 -0.4196,-10.43166 -2.3006,-14.6074 -6.2898,-13.96356 -22.7713,-20.50135 -39.968,-15.85423 -5.7216,1.54616 -7.5293,2.63335 -12.2833,7.3873 -4.754,4.75396 -5.8411,6.56168 -7.3873,12.28327 -4.245,15.70861 1.3793,32.4338 12.9616,38.54445 9.2058,4.8568 22.8589,5.4429 32,1.37368 z"
     id="path4202"
     inkscape:connector-curvature="0" />
</svg>
