<?xml version="1.0" ?><!DOCTYPE svg  PUBLIC '-//W3C//DTD SVG 1.1//EN'  'http://www.w3.org/Graphics/SVG/1.1/DTD/svg11.dtd'><svg enable-background="new 0 0 512 512" height="512px" id="Layer_1" version="1.1" viewBox="0 0 512 512" width="512px" xml:space="preserve" xmlns="http://www.w3.org/2000/svg" xmlns:xlink="http://www.w3.org/1999/xlink"><path d="M463.518,94.909H193.885v-10.37c0-22.908-18.574-41.482-41.482-41.482H48.699  c-22.908,0-41.482,18.574-41.482,41.482v51.852v72.593v217.78c0,22.907,18.574,41.482,41.482,41.482h414.819  c22.908,0,41.482-18.575,41.482-41.482V136.391C505,113.483,486.426,94.909,463.518,94.909z M27.958,84.539  c0-11.435,9.308-20.741,20.741-20.741h103.705c11.433,0,20.741,9.306,20.741,20.741v10.37v20.741h20.741h269.633  c11.433,0,20.741,9.306,20.741,20.741v20.741H27.958v-20.741V84.539z M463.518,447.506H48.699c-11.433,0-20.741-9.307-20.741-20.741  v-217.78v-31.111h456.301v248.892C484.259,438.198,474.952,447.506,463.518,447.506z" fill="#37404D"/></svg>