<?xml version="1.0" encoding="UTF-8" standalone="no"?>
<svg
   xmlns:dc="http://purl.org/dc/elements/1.1/"
   xmlns:cc="http://creativecommons.org/ns#"
   xmlns:rdf="http://www.w3.org/1999/02/22-rdf-syntax-ns#"
   xmlns:svg="http://www.w3.org/2000/svg"
   xmlns="http://www.w3.org/2000/svg"
   xmlns:sodipodi="http://sodipodi.sourceforge.net/DTD/sodipodi-0.dtd"
   xmlns:inkscape="http://www.inkscape.org/namespaces/inkscape"
   height="24"
   version="1.1"
   viewBox="0 0 24 24"
   width="24"
   id="svg12"
   sodipodi:docname="folder.svg"
   inkscape:version="0.92.4 (5da689c313, 2019-01-14)">
  <metadata
     id="metadata16">
    <rdf:RDF>
      <cc:Work
         rdf:about="">
        <dc:format>image/svg+xml</dc:format>
        <dc:type
           rdf:resource="http://purl.org/dc/dcmitype/StillImage" />
        <dc:title></dc:title>
      </cc:Work>
    </rdf:RDF>
  </metadata>
  <sodipodi:namedview
     pagecolor="#ffffff"
     bordercolor="#666666"
     borderopacity="1"
     objecttolerance="10"
     gridtolerance="10"
     guidetolerance="10"
     inkscape:pageopacity="0"
     inkscape:pageshadow="2"
     inkscape:window-width="2560"
     inkscape:window-height="1391"
     id="namedview14"
     showgrid="false"
     inkscape:zoom="16.696027"
     inkscape:cx="17.413374"
     inkscape:cy="-5.4174439"
     inkscape:window-x="0"
     inkscape:window-y="0"
     inkscape:window-maximized="1"
     inkscape:current-layer="svg12"
     fit-margin-top="0"
     fit-margin-left="0"
     fit-margin-right="0"
     fit-margin-bottom="0" />
  <desc
     id="desc4" />
  <defs
     id="defs6" />
  <g
     id="Page-1"
     transform="matrix(0.8,0,0,0.8,-1.1491215,-0.99135714)"
     style="fill:none;fill-rule:evenodd;stroke:none;stroke-width:1">
    <g
       id="g9"
       style="fill:#555555">
      <path
         d="M 17,8.7966102 15,4.6610169 H 4.0027601 c -1.1060938,0 -2.2698019,1.2286648 -2.2739465,2.3301381 l -0.067797,18.01769 c -0.00414,1.099676 1.2386958,2.262341 2.3322705,2.262341 H 29.006713 c 1.100862,0 2.264473,-1.163809 2.264473,-2.266275 V 10.995089 c 0,-1.1018571 -1.168246,-2.1984788 -2.277045,-2.1984788 z M 16.359985,10 14.400024,6 H 3.9917348 C 3.4440148,6 3,6.4553056 3,6.9918031 V 25.008197 C 3,25.555955 3.4461086,26 3.9929654,26 H 29.007035 C 29.555434,26 30,25.555369 30,24.999128 V 11.000872 C 30,10.448106 29.546172,10 28.997017,10 Z"
         id="folder"
         inkscape:connector-curvature="0"
         sodipodi:nodetypes="ccsssssssscccssssssssc" />
    </g>
  </g>
</svg>
