<?xml version="1.0" encoding="UTF-8" standalone="no"?>
<!-- Created with Inkscape (http://www.inkscape.org/) -->

<svg
   xmlns:dc="http://purl.org/dc/elements/1.1/"
   xmlns:cc="http://creativecommons.org/ns#"
   xmlns:rdf="http://www.w3.org/1999/02/22-rdf-syntax-ns#"
   xmlns:svg="http://www.w3.org/2000/svg"
   xmlns="http://www.w3.org/2000/svg"
   xmlns:sodipodi="http://sodipodi.sourceforge.net/DTD/sodipodi-0.dtd"
   xmlns:inkscape="http://www.inkscape.org/namespaces/inkscape"
   id="svg2"
   version="1.1"
   inkscape:version="0.91 r13725"
   width="512"
   height="451.54492"
   viewBox="0 0 511.99999 451.54493"
   sodipodi:docname="image.svg">
  <metadata
     id="metadata8">
    <rdf:RDF>
      <cc:Work
         rdf:about="">
        <dc:format>image/svg+xml</dc:format>
        <dc:type
           rdf:resource="http://purl.org/dc/dcmitype/StillImage" />
        <dc:title></dc:title>
      </cc:Work>
    </rdf:RDF>
  </metadata>
  <defs
     id="defs6" />
  <sodipodi:namedview
     pagecolor="#ffffff"
     bordercolor="#666666"
     borderopacity="1"
     objecttolerance="10"
     gridtolerance="10"
     guidetolerance="10"
     inkscape:pageopacity="0"
     inkscape:pageshadow="2"
     inkscape:window-width="2560"
     inkscape:window-height="1391"
     id="namedview4"
     showgrid="false"
     fit-margin-top="50"
     fit-margin-left="0"
     fit-margin-right="0"
     fit-margin-bottom="50"
     inkscape:zoom="1.3037281"
     inkscape:cx="544.40274"
     inkscape:cy="257.12375"
     inkscape:window-x="0"
     inkscape:window-y="0"
     inkscape:window-maximized="1"
     inkscape:current-layer="svg2" />
  <path
     style="fill:#000000"
     d="m 0,50 0,143.54492 0,208 256,0 256,0 0,-208 L 512,50 0,50 Z m 16,15.544922 240,0 240,0 0,159.999998 0,160 -240,0 -240,0 0,-160 0,-159.999998 z m 267.80078,56.244138 c -13.25249,0.19801 -26.45038,7.40757 -33.08984,21.53125 -2.7168,5.77928 -3.16394,7.84939 -3.17774,14.72461 -0.0102,5.07292 0.62171,9.82942 1.72852,13 3.53364,10.12244 13.38298,19.71767 23.60156,22.99219 2.96211,0.9492 7.52615,1.37807 12.63672,1.1875 14.22491,-0.53043 25.48789,-7.81501 31.75,-20.53516 2.97829,-6.04977 3.25,-7.40003 3.25,-16.14453 0,-8.76642 -0.26753,-10.08511 -3.28711,-16.21875 -6.85381,-13.92208 -20.15962,-20.73511 -33.41211,-20.53711 z m 0.1875,15.7168 c 6.6457,-0.15748 13.29519,2.85463 17.61719,9.24218 6.15816,9.10125 5.21659,19.08475 -2.5293,26.79688 -2.74616,2.73419 -6.22091,5.04368 -8.6914,5.77734 -5.15867,1.53195 -7.89226,1.48796 -12.625,-0.20117 -5.59382,-1.99646 -8.47064,-4.18042 -11.47266,-8.71679 -3.70345,-5.59628 -4.37288,-14.82342 -1.48438,-20.44141 4.12728,-8.02732 11.65375,-12.27855 19.18555,-12.45703 z m -92.09766,39.03906 c -0.54728,0 -110.24906,140.21601 -116.552729,148.97266 -0.97653,1.35654 -0.25696,2.35733 4.5,6.25781 3.114319,2.5536 5.887109,4.65301 6.162109,4.66601 0.275,0.013 24.28502,-30.60094 53.35547,-68.03125 29.07045,-37.4303 53.17985,-67.67353 53.57617,-67.20898 0.39631,0.46455 11.51611,13.89375 24.71094,29.84375 53.94027,65.20334 83.6797,101.07108 84.8164,102.29492 0.96951,1.04385 2.30083,0.38945 6.8711,-3.37304 3.11817,-2.56705 5.66615,-4.94979 5.66015,-5.29493 -0.006,-0.34514 -5.40586,-7.14804 -12,-15.11914 C 296.3961,301.58162 291,294.82903 291,294.54687 c 0,-0.28217 14.17477,-14.68327 31.5,-32.00195 l 31.5,-31.48828 36.26953,36.25781 36.26953,36.25977 5.46289,-5.53125 5.46289,-5.53125 -41.73046,-41.73047 -41.73047,-41.73047 -36.75196,36.74219 L 280.5,282.5332 236.56055,229.53906 c -24.16717,-29.1466 -44.26868,-52.99414 -44.66993,-52.99414 z"
     id="path4173"
     inkscape:connector-curvature="0" />
</svg>
