<?xml version="1.0" encoding="UTF-8" standalone="no"?>
<svg
   xmlns:dc="http://purl.org/dc/elements/1.1/"
   xmlns:cc="http://creativecommons.org/ns#"
   xmlns:rdf="http://www.w3.org/1999/02/22-rdf-syntax-ns#"
   xmlns:svg="http://www.w3.org/2000/svg"
   xmlns="http://www.w3.org/2000/svg"
   xmlns:sodipodi="http://sodipodi.sourceforge.net/DTD/sodipodi-0.dtd"
   xmlns:inkscape="http://www.inkscape.org/namespaces/inkscape"
   enable-background="new 0 0 512 512"
   height="396"
   version="1.1"
   viewBox="0 0 396 396"
   width="396"
   xml:space="preserve"
   id="svg13"
   sodipodi:docname="instagram.svg"
   inkscape:version="0.92.2 (5c3e80d, 2017-08-06)"><metadata
     id="metadata19"><rdf:RDF><cc:Work
         rdf:about=""><dc:format>image/svg+xml</dc:format><dc:type
           rdf:resource="http://purl.org/dc/dcmitype/StillImage" /><dc:title></dc:title></cc:Work></rdf:RDF></metadata><defs
     id="defs17" /><sodipodi:namedview
     pagecolor="#ffffff"
     bordercolor="#666666"
     borderopacity="1"
     objecttolerance="10"
     gridtolerance="10"
     guidetolerance="10"
     inkscape:pageopacity="0"
     inkscape:pageshadow="2"
     inkscape:window-width="2560"
     inkscape:window-height="1391"
     id="namedview15"
     showgrid="false"
     fit-margin-top="0"
     fit-margin-left="0"
     fit-margin-right="0"
     fit-margin-bottom="0"
     inkscape:zoom="2.6074563"
     inkscape:cx="185.34101"
     inkscape:cy="276.94744"
     inkscape:window-x="0"
     inkscape:window-y="0"
     inkscape:window-maximized="1"
     inkscape:current-layer="svg13" /><g
     id="Ebene_3"
     transform="translate(-58,-58)" /><g
     id="Ebene_1"
     transform="translate(-58,-58)" /><g
     id="Ebene_2"
     transform="translate(-58,-58)"><g
       id="g10"><path
         d="m 394.9302,137.18461 c 7.07316,0 12.828,-5.75484 12.828,-12.828 0,-7.07317 -5.75484,-12.82801 -12.828,-12.82801 -7.07317,0 -12.82801,5.75484 -12.82801,12.82801 0,7.07316 5.75484,12.828 12.82801,12.828 z"
         id="path4"
         inkscape:connector-curvature="0"
         style="stroke-width:1.97353947" /><path
         d="M 416,58 H 96 C 75.047,58 58,75.047 58,96 v 320 c 0,20.953 17.047,38 38,38 h 320 c 20.953,0 38,-17.047 38,-38 V 96 C 454,75.047 436.953,58 416,58 Z m 26,38 v 90 H 330.117 C 311.51,166.309 285.167,154 256,154 c -29.167,0 -55.51,12.309 -74.117,32 H 166 V 70 h 250 c 14.337,0 26,11.664 26,26 z m -186,70 c 49.626,0 90,40.374 90,90 0,49.626 -40.374,90 -90,90 -49.626,0 -90,-40.374 -90,-90 0,-49.626 40.374,-90 90,-90 z M 118,186 V 70 h 36 V 186 Z M 96,70 h 10 V 186 H 70 V 96 C 70,81.664 81.663,70 96,70 Z M 416,442 H 96 C 81.663,442 70,430.336 70,416 V 198 H 172.145 C 160.712,214.479 154,234.469 154,256 c 0,56.243 45.757,102 102,102 56.243,0 102,-45.757 102,-102 0,-21.531 -6.712,-41.521 -18.145,-58 H 442 v 218 c 0,14.336 -11.663,26 -26,26 z"
         id="path6"
         inkscape:connector-curvature="0" /><path
         d="m 256,310 c 29.775,0 54,-24.224 54,-54 0,-29.776 -24.225,-54 -54,-54 -29.775,0 -54,24.224 -54,54 0,29.776 24.225,54 54,54 z m 0,-96 c 23.159,0 42,18.841 42,42 0,23.159 -18.841,42 -42,42 -23.159,0 -42,-18.841 -42,-42 0,-23.159 18.841,-42 42,-42 z"
         id="path8"
         inkscape:connector-curvature="0" /></g></g></svg>