<svg style="enable-background:new 0 0 50 50" viewBox="0 0 50 50" xml:space="preserve" xmlns="http://www.w3.org/2000/svg">
    <path d="M11.899 49c2.911 0 5.648-1.134 7.707-3.192l9.201-9.201A10.829 10.829 0 0 0 32 28.899c0-4.825-3.098-9.014-7.708-10.424l-.584 1.912A8.852 8.852 0 0 1 30 28.899a8.845 8.845 0 0 1-2.606 6.293l-9.201 9.201A8.844 8.844 0 0 1 11.899 47C6.992 47 3 43.008 3 38.101c0-2.377.926-4.612 2.606-6.293l9.201-9.201c.291-.291.604-.563.93-.809l-1.205-1.597a11 11 0 0 0-1.139.991l-9.201 9.201A10.832 10.832 0 0 0 1 38.101C1 44.11 5.89 49 11.899 49z"/>
    <path d="M38.101 1a10.831 10.831 0 0 0-7.707 3.192l-9.201 9.201A10.829 10.829 0 0 0 18 21.101c0 5.208 3.705 9.707 8.81 10.699l.381-1.963c-4.166-.81-7.19-4.483-7.19-8.736 0-2.377.926-4.612 2.606-6.293l9.201-9.201A8.84 8.84 0 0 1 38.101 3C43.008 3 47 6.992 47 11.899a8.845 8.845 0 0 1-2.606 6.293l-9.2 9.201c-.259.258-.53.499-.809.716l1.23 1.576c.342-.267.676-.562.991-.877l9.201-9.201A10.829 10.829 0 0 0 49 11.899C49 5.89 44.11 1 38.101 1z"/>
</svg>
