<svg width="180" height="180" xmlns="http://www.w3.org/2000/svg"><defs><linearGradient x1=".003" y1=".103" x2=".954" y2=".725" id="a"><stop stop-color="#2BEAED" offset="0%"/><stop stop-color="#0FCCCE" offset="100%"/></linearGradient></defs><g transform="translate(13.637 13.58)" style="stroke-width:3;stroke-miterlimit:4;stroke-dasharray:none" fill="none" fill-rule="evenodd"><rect fill="url(#a)" width="156.235" height="156.644" rx="12.688" style="fill:none;fill-opacity:1;stroke:#000;stroke-width:5;stroke-miterlimit:4;stroke-dasharray:none;stroke-opacity:1"/><path d="M119.052 30.826c4.285.634 7.243 4.628 6.61 8.918-.632 4.292-4.618 7.26-8.905 6.624-7.591-1.124-18.963 10.697-31.695 35.003-16.254 31.03-31.382 45.815-47.31 44.635-4.32-.32-7.562-4.088-7.243-8.413.319-4.326 4.079-7.576 8.4-7.256 7.865.583 19.418-11.742 32.264-36.266 16.357-31.229 31.691-45.644 47.879-43.245Z" fill="#FFF" style="fill:none;stroke:#000;stroke-width:5;stroke-miterlimit:4;stroke-dasharray:none;stroke-opacity:1"/></g></svg>