<?xml version="1.0" encoding="UTF-8" standalone="no"?>
<!-- Created with Inkscape (http://www.inkscape.org/) -->

<svg
   xmlns:dc="http://purl.org/dc/elements/1.1/"
   xmlns:cc="http://creativecommons.org/ns#"
   xmlns:rdf="http://www.w3.org/1999/02/22-rdf-syntax-ns#"
   xmlns:svg="http://www.w3.org/2000/svg"
   xmlns="http://www.w3.org/2000/svg"
   xmlns:sodipodi="http://sodipodi.sourceforge.net/DTD/sodipodi-0.dtd"
   xmlns:inkscape="http://www.inkscape.org/namespaces/inkscape"
   width="113.98296mm"
   height="98.180603mm"
   viewBox="0 0 403.87665 347.88399"
   id="svg2"
   version="1.1"
   inkscape:version="0.91 r13725"
   sodipodi:docname="pagination.svg">
  <defs
     id="defs4" />
  <sodipodi:namedview
     id="base"
     pagecolor="#ffffff"
     bordercolor="#666666"
     borderopacity="1.0"
     inkscape:pageopacity="0.0"
     inkscape:pageshadow="2"
     inkscape:zoom="0.49497475"
     inkscape:cx="569.31234"
     inkscape:cy="-206.62986"
     inkscape:document-units="px"
     inkscape:current-layer="layer1"
     showgrid="false"
     fit-margin-top="30"
     fit-margin-left="10"
     fit-margin-right="10"
     fit-margin-bottom="30"
     inkscape:window-width="2560"
     inkscape:window-height="1391"
     inkscape:window-x="0"
     inkscape:window-y="0"
     inkscape:window-maximized="1" />
  <metadata
     id="metadata7">
    <rdf:RDF>
      <cc:Work
         rdf:about="">
        <dc:format>image/svg+xml</dc:format>
        <dc:type
           rdf:resource="http://purl.org/dc/dcmitype/StillImage" />
        <dc:title></dc:title>
      </cc:Work>
    </rdf:RDF>
  </metadata>
  <g
     inkscape:label="Layer 1"
     inkscape:groupmode="layer"
     id="layer1"
     transform="translate(-1619.6542,-753.46861)">
    <path
       style="fill:#000000"
       d="m 1168.5723,599.73438 c -143.9504,-10e-6 -149.6299,0.0683 -153,1.86328 -4.8987,2.60912 -8.8162,6.45624 -11.3418,11.13672 l -2.1582,4 0,40.5 c 0,17.27915 0.059,60.61369 1.8632,64 1.7694,3.32204 3.9882,6.08267 6.6368,8.27734 l 0.01,-55.02734 c 2e-4,-1.56894 0.01,-2.20359 0.01,-3.6875 l 0,58.7246 c 2.5876,2.14171 5.5853,3.74284 8.9824,4.78516 1.0206,0.31316 38.6266,0.53994 91.0039,0.59961 l 0,0.11328 7.9844,0 0,-0.10937 c 16.2251,0.0129 33.3253,0.0154 51.5,-0.006 l 48.5,-0.0566 0,0.17187 8.0215,0 0,-0.17969 91.5,-0.10546 4,-2.15821 c 1.6009,-0.86389 3.0948,-1.90298 4.4844,-3.07617 0,-0.003 0.01,-0.005 0.01,-0.008 l 0,-0.002 c 2.6678,-2.25482 4.9246,-5.03748 6.6387,-8.25585 1.8032,-3.38632 1.8652,-31.06349 1.8652,-64 l 0,-40.5 -2.1601,-4 c -2.5256,-4.68048 -6.4412,-8.5276 -11.3399,-11.13672 -3.3701,-1.79496 -9.0496,-1.86328 -153,-1.86328 z M 1326.5684,729.5 l 0,5.51953 0,0 z m -100.0059,-121.26758 45.25,0.008 c 42.6432,0.006 45.4134,0.11449 48.1074,1.89063 1.5723,1.03658 3.7076,3.17185 4.7442,4.74414 1.6386,2.4853 1.8427,7.09862 1.875,48.86523 -0.032,29.6415 -0.2515,53.38902 -1.875,55.85157 -1.0366,1.5723 -3.1719,3.70764 -4.7442,4.74414 l 0.01,0 c -2.2899,1.50955 -10.7602,1.80013 -93.3652,1.85937 l 0,-56.46289 z m -116,0.002 0,61.5 0,56.46093 c -82.5916,-0.0592 -91.0599,-0.34974 -93.3496,-1.85937 -1.5723,-1.0365 -3.7056,-3.17184 -4.7422,-4.74414 -1.6603,-2.51831 -1.8524,-26.11981 -1.8789,-57.70508 0.036,-39.88016 0.2587,-44.56615 1.8711,-47.01172 1.0366,-1.57229 3.1718,-3.7056 4.7441,-4.74219 2.694,-1.77614 5.4662,-1.88658 48.1094,-1.89258 z m 8,0 50,0 50,0 0,61.5 0,56.46484 c -15.7016,0.008 -28.5792,0.0215 -49.9941,0.0215 -21.4198,0 -34.302,-0.0132 -50.0059,-0.0215 l 0,-56.46484 z m 159.5957,35.20507 c -0.6048,-0.005 -1.2246,0.014 -1.8594,0.0547 -7.1019,0.45549 -10.3983,2.66703 -13.6543,9.16602 -2.6571,5.30358 -2.1251,7.81441 1.7754,8.39453 1.7116,0.25458 2.5351,-0.5729 4.0176,-4.03125 2.5926,-6.04842 8.1961,-8.40057 13.4395,-5.64063 2.9575,1.55668 3.6519,2.7921 3.6699,6.5293 0.018,3.80644 -3.8227,7.32227 -7.9981,7.32227 -3.152,-10e-6 -5.3079,2.09677 -4.8105,4.67968 0.2368,1.22958 1.9193,2.12759 5.4609,2.91406 6.2793,1.3944 7.2444,1.96563 8.3848,4.96485 2.1318,5.60696 -3.0944,11.44141 -10.25,11.44141 -4.2804,0 -7.3898,-2.22028 -9.5586,-6.82618 -1.3118,-2.78604 -2.3327,-3.67382 -4.2227,-3.67382 -5.7568,-10e-6 -2.1091,11.8058 4.7696,15.4375 2.3059,1.21742 5.767,1.99037 9.0293,2.01757 14.8725,0.12426 23.4387,-14.39975 14.6523,-24.84179 l -2.5566,-3.03907 2.3066,-3.12304 c 1.7145,-2.32036 2.2894,-4.39238 2.2344,-8.0625 -0.1264,-8.48943 -5.7581,-13.61312 -14.8301,-13.6836 z m -109.0781,0.004 c -3.5511,0.025 -7.1625,0.87767 -9.3106,2.46875 -6.2918,4.66045 -9.3152,13.12271 -5.4316,15.20117 2.2815,1.22102 5.2246,-0.35334 5.2246,-2.79492 0,-5.61998 8.1634,-9.60295 13.7559,-6.71094 3.2865,1.69949 4.2441,3.38798 4.2441,7.48633 0,3.62486 -1.4427,5.55623 -15.1895,20.36328 -6.4967,6.99782 -11.8105,13.0961 -11.8105,13.55078 0,0.45467 0.5392,1.36539 1.1992,2.02539 0.8318,0.83184 6.0367,1.20118 16.9649,1.20118 14.9041,0 15.8248,-0.11322 16.8691,-2.06446 2.1193,-3.95995 -0.2075,-4.93554 -11.7695,-4.93554 l -10.4922,0 8.6269,-9.06641 c 10.076,-10.58806 12.6016,-14.9445 12.6016,-21.74609 0,-5.92084 -2.9335,-10.85458 -8.0215,-13.49415 -1.9737,-1.02389 -4.6989,-1.50381 -7.4609,-1.48437 z m -108.0391,0.0781 c -0.8131,0.0476 -1.7508,0.56239 -3.1074,1.625 -4.6734,3.66042 -13.3711,12.17904 -13.3711,13.09571 0,1.12234 2.9001,3.99219 4.0352,3.99219 0.4916,0 2.4313,-1.35002 4.3105,-3 1.8793,-1.65002 3.6953,-3 4.0352,-3 0.3399,-1e-5 0.6191,7.401 0.6191,16.44726 l 0,16.44727 -5.2422,0.30273 c -5.3754,0.30986 -6.7759,1.71049 -5.375,5.36133 0.8108,2.11265 25.8221,2.1019 27.5762,-0.0117 2.4724,-2.97903 0.8307,-5.01601 -4.4688,-5.54687 l -4.9902,-0.5 -0.5,-21.89258 c -0.4291,-18.78639 -0.7315,-22.03775 -2.1289,-22.91797 -0.4617,-0.29077 -0.9048,-0.43091 -1.3926,-0.40235 z m -50.4785,85.99024 0,5.50781 0.01,0 0,-5.49805 c 0,-0.003 -0.01,-0.007 -0.01,-0.01 z"
       transform="translate(653.01497,260.03374)"
       id="path4601"
       inkscape:connector-curvature="0"
       sodipodi:nodetypes="ssccsccccccccccsccccccccccsccssscccccccccscccccccccsccscccccccscccccsscccscscscssccccccscsssssscscsccscsscssccsccccccscscccsc" />
  </g>
</svg>
