<svg xmlns="http://www.w3.org/2000/svg" width="430.802" height="371.076" viewBox="0 0 403.877 347.884">
    <path style="fill:#000" d="M1168.572 599.734c-143.95 0-149.63.069-153 1.864-4.898 2.609-8.816 6.456-11.341 11.136l-2.159 4v40.5c0 17.28.06 60.614 1.864 64 1.769 3.322 3.988 6.083 6.636 8.278l.01-55.028c0-1.569.01-2.203.01-3.687v58.724c2.588 2.142 5.586 3.743 8.983 4.786 1.02.313 38.626.54 91.004.6v.113h7.984v-.11c16.225.013 33.325.016 51.5-.006l48.5-.056v.171h8.021v-.18l91.5-.105 4-2.158a26.386 26.386 0 0 0 4.485-3.076c0-.003.01-.005.01-.008v-.002a28.022 28.022 0 0 0 6.639-8.256c1.803-3.386 1.865-31.063 1.865-64v-40.5l-2.16-4c-2.526-4.68-6.441-8.528-11.34-11.137-3.37-1.795-9.05-1.863-153-1.863zM1326.568 729.5v5.52zm-100.005-121.268 45.25.008c42.643.006 45.413.115 48.107 1.891 1.572 1.037 3.708 3.172 4.744 4.744 1.639 2.485 1.843 7.099 1.875 48.865-.032 29.642-.251 53.39-1.875 55.852-1.036 1.572-3.172 3.708-4.744 4.744h.01c-2.29 1.51-10.76 1.8-93.365 1.86v-56.463zm-116 .002v117.961c-82.592-.059-91.06-.35-93.35-1.859-1.572-1.037-3.706-3.172-4.742-4.744-1.66-2.518-1.853-26.12-1.88-57.705.037-39.88.26-44.566 1.872-47.012 1.036-1.572 3.172-3.706 4.744-4.742 2.694-1.776 5.466-1.887 48.11-1.893zm8 0h100V726.2c-15.702.008-28.58.022-49.995.022-21.42 0-34.302-.013-50.005-.022v-56.465zm159.595 35.205a25.752 25.752 0 0 0-1.86.055c-7.101.456-10.397 2.667-13.653 9.166-2.658 5.304-2.126 7.815 1.775 8.395 1.712.254 2.535-.573 4.018-4.032 2.592-6.048 8.196-8.4 13.439-5.64 2.958 1.557 3.652 2.792 3.67 6.53.018 3.806-3.823 7.321-7.998 7.321-3.152 0-5.308 2.097-4.81 4.68.236 1.23 1.919 2.128 5.46 2.914 6.28 1.395 7.245 1.966 8.385 4.965 2.132 5.607-3.094 11.441-10.25 11.441-4.28 0-7.39-2.22-9.559-6.826-1.311-2.786-2.332-3.674-4.222-3.674-5.757 0-2.11 11.806 4.77 15.438 2.305 1.217 5.766 1.99 9.029 2.017 14.872.125 23.438-14.4 14.652-24.841l-2.557-3.04 2.307-3.122c1.714-2.32 2.29-4.393 2.234-8.063-.126-8.49-5.758-13.613-14.83-13.684zm-109.078.004c-3.551.025-7.162.878-9.31 2.47-6.292 4.66-9.316 13.122-5.432 15.2 2.281 1.221 5.225-.353 5.225-2.795 0-5.62 8.163-9.602 13.755-6.71 3.287 1.699 4.245 3.388 4.245 7.486 0 3.625-1.443 5.556-15.19 20.363-6.497 6.998-11.81 13.096-11.81 13.55 0 .456.539 1.366 1.199 2.026.832.832 6.036 1.202 16.965 1.202 14.904 0 15.824-.114 16.869-2.065 2.119-3.96-.208-4.935-11.77-4.935h-10.492l8.627-9.067c10.076-10.588 12.602-14.944 12.602-21.746 0-5.92-2.934-10.855-8.022-13.494-1.974-1.024-4.699-1.504-7.46-1.485zm-108.039.079c-.813.047-1.75.562-3.107 1.625-4.674 3.66-13.371 12.179-13.371 13.095 0 1.123 2.9 3.992 4.035 3.992.491 0 2.431-1.35 4.31-3 1.88-1.65 3.696-3 4.035-3 .34 0 .62 7.401.62 16.448v16.447l-5.243.303c-5.375.31-6.776 1.71-5.375 5.361.811 2.113 25.822 2.102 27.577-.012 2.472-2.979.83-5.016-4.47-5.546l-4.99-.5-.5-21.893c-.429-18.786-.731-22.038-2.128-22.918-.462-.29-.905-.43-1.393-.402zm-50.478 85.99v5.508h.01v-5.498c0-.003-.01-.007-.01-.01z" transform="translate(-966.64 -493.435)"/>
</svg>
