<?xml version="1.0" ?><svg viewBox="0 0 256 256" xmlns="http://www.w3.org/2000/svg"><rect fill="none" height="256" width="256"/><path d="M168,224H56a8,8,0,0,1-8-8V72a8,8,0,0,1,8-8h80l40,40V216A8,8,0,0,1,168,224Z" fill="none" stroke="#000" stroke-linecap="round" stroke-linejoin="round" stroke-width="8"/><path d="M80,64V40a8,8,0,0,1,8-8h80l40,40V184a8,8,0,0,1-8,8H176" fill="none" stroke="#000" stroke-linecap="round" stroke-linejoin="round" stroke-width="8"/><line fill="none" stroke="#000" stroke-linecap="round" stroke-linejoin="round" stroke-width="8" x1="88" x2="136" y1="152" y2="152"/><line fill="none" stroke="#000" stroke-linecap="round" stroke-linejoin="round" stroke-width="8" x1="88" x2="136" y1="184" y2="184"/></svg>