<?xml version="1.0" encoding="UTF-8" standalone="no"?>
<!-- Created with Inkscape (http://www.inkscape.org/) -->

<svg
   xmlns:dc="http://purl.org/dc/elements/1.1/"
   xmlns:cc="http://creativecommons.org/ns#"
   xmlns:rdf="http://www.w3.org/1999/02/22-rdf-syntax-ns#"
   xmlns:svg="http://www.w3.org/2000/svg"
   xmlns="http://www.w3.org/2000/svg"
   xmlns:sodipodi="http://sodipodi.sourceforge.net/DTD/sodipodi-0.dtd"
   xmlns:inkscape="http://www.inkscape.org/namespaces/inkscape"
   id="svg2"
   version="1.1"
   inkscape:version="0.91 r13725"
   width="299"
   height="502.46927"
   viewBox="0 0 299 502.46927"
   sodipodi:docname="product.svg">
  <metadata
     id="metadata8">
    <rdf:RDF>
      <cc:Work
         rdf:about="">
        <dc:format>image/svg+xml</dc:format>
        <dc:type
           rdf:resource="http://purl.org/dc/dcmitype/StillImage" />
        <dc:title></dc:title>
      </cc:Work>
    </rdf:RDF>
  </metadata>
  <defs
     id="defs6" />
  <sodipodi:namedview
     pagecolor="#ffffff"
     bordercolor="#666666"
     borderopacity="1"
     objecttolerance="10"
     gridtolerance="10"
     guidetolerance="10"
     inkscape:pageopacity="0"
     inkscape:pageshadow="2"
     inkscape:window-width="2560"
     inkscape:window-height="1391"
     id="namedview4"
     showgrid="false"
     fit-margin-top="80"
     fit-margin-left="0"
     fit-margin-right="0"
     fit-margin-bottom="80"
     inkscape:zoom="0.65186406"
     inkscape:cx="944.379"
     inkscape:cy="117.59522"
     inkscape:window-x="0"
     inkscape:window-y="0"
     inkscape:window-maximized="1"
     inkscape:current-layer="svg2" />
  <path
     style="fill:#000000"
     d="M 147.00001,422.04329 C 142.73947,420.31499 3.888477,339.73369 1.999997,337.89339 0.03099,335.97469 0,334.62809 0,251 c 0,-83.62667 0.031,-84.97475 1.999997,-86.89776 1.1,-1.07432 34.03263,-20.43682 73.18361,-43.02778 C 127.54758,90.85934 147.19562,80 149.50061,80 c 2.30575,0 21.93563,10.85613 74.3164,41.1 39.15065,22.605 72.083,41.9675 73.183,43.02778 1.96917,1.89806 2,3.23703 2,86.87222 0,83.63009 -0.031,84.97449 -2,86.88749 -2.30115,2.2357 -142.97671,83.567 -146,84.4097 -1.1,0.3066 -2.9,0.1923 -4,-0.2539 z m -5.74338,-94.7297 -0.25662,-71.68649 -58.35514,-33.6885 C 50.549547,203.40992 22.534077,187.26337 20.388277,186.05736 l -3.90146,-2.19274 0.2566,72.17423 0.25659,72.17424 61,35.3075 c 33.550003,19.4192 61.565483,35.3463 62.256623,35.3935 1.00016,0.068 1.20425,-14.5444 1,-71.6005 z m 78.90609,36.5903 c 33.46051,-19.3028 61.17779,-35.4158 61.59396,-35.8066 0.41617,-0.3909 0.64117,-32.97682 0.5,-72.41326 l -0.25667,-71.70263 -26,15.01732 -26,15.01731 -0.5,23.72541 -0.5,23.72541 -7,4.24195 c -3.85,2.33308 -7.55421,4.25304 -8.23157,4.26658 -0.93243,0.0186 -1.29677,-5.51079 -1.5,-22.7652 l -0.26843,-22.78983 -27,15.59721 -27,15.59721 -0.25662,71.69262 c -0.15435,43.1207 0.10977,71.6926 0.66271,71.6926 0.50564,0 28.29612,-15.7932 61.75662,-35.0961 z M 177.27809,225.5 c 14.38056,-8.25 26.05095,-15.32544 25.9342,-15.7232 -0.11676,-0.39776 -27.74817,-16.92208 -61.40314,-36.72071 L 80.61829,137.05858 53.309147,152.83825 c -15.02003,8.67881 -27.16641,16.20313 -26.99196,16.7207 0.50369,1.49439 121.509233,71.32111 123.248623,71.1211 0.8612,-0.099 13.33172,-6.93005 27.71228,-15.18005 z m 70.22916,-40.63735 c 20.94366,-12.12515 25.88258,-15.3768 24.81969,-16.34063 C 270.24619,166.63518 150.70875,98 149.50331,98 c -1.75889,0 -52.08049,29.2557 -51.43733,29.90436 0.95468,0.96284 121.86768,72.02484 122.61433,72.06188 0.37417,0.0186 12.44629,-6.77805 26.82694,-15.10359 z"
     id="path4138"
     inkscape:connector-curvature="0" />
</svg>
