<?xml version="1.0" encoding="UTF-8" standalone="no"?>
<!-- Created with Inkscape (http://www.inkscape.org/) -->

<svg
   xmlns:dc="http://purl.org/dc/elements/1.1/"
   xmlns:cc="http://creativecommons.org/ns#"
   xmlns:rdf="http://www.w3.org/1999/02/22-rdf-syntax-ns#"
   xmlns:svg="http://www.w3.org/2000/svg"
   xmlns="http://www.w3.org/2000/svg"
   xmlns:sodipodi="http://sodipodi.sourceforge.net/DTD/sodipodi-0.dtd"
   xmlns:inkscape="http://www.inkscape.org/namespaces/inkscape"
   id="svg2"
   version="1.1"
   inkscape:version="0.92.5 (2060ec1f9f, 2020-04-08)"
   width="320"
   height="370"
   viewBox="0 0 300.00001 346.875"
   sodipodi:docname="product.svg">
  <metadata
     id="metadata8">
    <rdf:RDF>
      <cc:Work
         rdf:about="">
        <dc:format>image/svg+xml</dc:format>
        <dc:type
           rdf:resource="http://purl.org/dc/dcmitype/StillImage" />
        <dc:title></dc:title>
      </cc:Work>
    </rdf:RDF>
  </metadata>
  <defs
     id="defs6" />
  <sodipodi:namedview
     pagecolor="#ffffff"
     bordercolor="#666666"
     borderopacity="1"
     objecttolerance="10"
     gridtolerance="10"
     guidetolerance="10"
     inkscape:pageopacity="0"
     inkscape:pageshadow="2"
     inkscape:window-width="2560"
     inkscape:window-height="1391"
     id="namedview4"
     showgrid="false"
     fit-margin-top="80"
     fit-margin-left="0"
     fit-margin-right="0"
     fit-margin-bottom="80"
     inkscape:zoom="0.65186406"
     inkscape:cx="671.31593"
     inkscape:cy="34.024718"
     inkscape:window-x="0"
     inkscape:window-y="0"
     inkscape:window-maximized="1"
     inkscape:current-layer="svg2" />
  <path
     style="fill:#000000"
     d="m 149.87638,344.05049 c -4.26054,-1.7283 -143.1115364,-82.3096 -145.0000164,-84.1499 -1.9690069,-1.9187 -1.9999969,-3.2653 -1.9999969,-86.89339 0,-83.626676 0.031,-84.974756 1.9999969,-86.897756 1.1,-1.07432 34.0326304,-20.436825 73.1836104,-43.027785 C 130.42395,12.866538 150.07199,2.0071986 152.37698,2.0071986 c 2.30575,0 21.93563,10.8561294 74.3164,41.1000004 39.15065,22.605 72.083,41.967505 73.183,43.027785 1.96917,1.89805 2,3.23702 2,86.872216 0,83.63009 -0.031,84.97449 -2,86.88749 -2.30115,2.2357 -142.97671,83.567 -146,84.4097 -1.1,0.3066 -2.9,0.1923 -4,-0.2539 z M 144.133,249.32079 143.87638,177.6343 85.521237,143.9458 C 53.425914,125.41712 25.410444,109.27057 23.264644,108.06456 l -3.90146,-2.19274 0.2566,72.17423 0.25659,72.17424 61,35.3075 c 33.550006,19.4192 61.565486,35.3463 62.256626,35.3935 1.00016,0.068 1.20425,-14.5444 1,-71.6005 z m 78.90609,36.5903 c 33.46051,-19.3028 61.17779,-35.4158 61.59396,-35.8066 0.41617,-0.3909 0.64117,-32.97682 0.5,-72.41326 l -0.25667,-71.70263 -26,15.01732 -26,15.01731 -0.5,23.72541 -0.5,23.72541 -7,4.24195 c -3.85,2.33308 -7.55421,4.25304 -8.23157,4.26658 -0.93243,0.0186 -1.29677,-5.51079 -1.5,-22.7652 l -0.26843,-22.78983 -27,15.59721 -27,15.59721 -0.25662,71.69262 c -0.15435,43.1207 0.10977,71.6926 0.66271,71.6926 0.50564,0 28.29612,-15.7932 61.75662,-35.0961 z M 180.15446,147.5072 c 14.38056,-8.25 26.05095,-15.32544 25.9342,-15.7232 -0.11676,-0.39776 -27.74817,-16.92208 -61.40314,-36.720716 L 83.494657,59.065779 56.185514,74.845449 c -15.02003,8.678815 -27.16641,16.203125 -26.99196,16.720695 0.50369,1.49439 121.509236,71.321116 123.248626,71.121106 0.8612,-0.099 13.33172,-6.93005 27.71228,-15.18005 z m 70.22916,-40.63735 C 271.32728,94.744694 276.2662,91.493044 275.20331,90.529214 273.12256,88.642374 153.58512,20.007199 152.37968,20.007199 c -1.75889,0 -52.08049,29.2557 -51.43733,29.90436 0.95467,0.96284 121.86768,72.024841 122.61433,72.061881 0.37417,0.0186 12.44629,-6.77805 26.82694,-15.10359 z"
     id="path4138"
     inkscape:connector-curvature="0" />
</svg>
