<?xml version="1.0" encoding="UTF-8" standalone="no"?>
<!-- Created with Inkscape (http://www.inkscape.org/) -->

<svg
   xmlns:dc="http://purl.org/dc/elements/1.1/"
   xmlns:cc="http://creativecommons.org/ns#"
   xmlns:rdf="http://www.w3.org/1999/02/22-rdf-syntax-ns#"
   xmlns:svg="http://www.w3.org/2000/svg"
   xmlns="http://www.w3.org/2000/svg"
   xmlns:sodipodi="http://sodipodi.sourceforge.net/DTD/sodipodi-0.dtd"
   xmlns:inkscape="http://www.inkscape.org/namespaces/inkscape"
   id="svg2"
   version="1.1"
   inkscape:version="0.91 r13725"
   width="519.15308"
   height="610.30658"
   viewBox="0 0 519.15306 610.30659"
   sodipodi:docname="product_gallery.svg">
  <metadata
     id="metadata8">
    <rdf:RDF>
      <cc:Work
         rdf:about="">
        <dc:format>image/svg+xml</dc:format>
        <dc:type
           rdf:resource="http://purl.org/dc/dcmitype/StillImage" />
        <dc:title></dc:title>
      </cc:Work>
    </rdf:RDF>
  </metadata>
  <defs
     id="defs6" />
  <sodipodi:namedview
     pagecolor="#ffffff"
     bordercolor="#666666"
     borderopacity="1"
     objecttolerance="10"
     gridtolerance="10"
     guidetolerance="10"
     inkscape:pageopacity="0"
     inkscape:pageshadow="2"
     inkscape:window-width="2560"
     inkscape:window-height="1391"
     id="namedview4"
     showgrid="false"
     fit-margin-top="100"
     fit-margin-left="0"
     fit-margin-right="0"
     fit-margin-bottom="100"
     inkscape:zoom="1.3037281"
     inkscape:cx="389.22813"
     inkscape:cy="331.49871"
     inkscape:window-x="0"
     inkscape:window-y="0"
     inkscape:window-maximized="1"
     inkscape:current-layer="svg2" />
  <path
     style="fill:#000000"
     d="m 269.28295,208.69082 c -13.25249,0.19801 -26.45038,7.40757 -33.08984,21.53125 -2.7168,5.77928 -3.16394,7.84939 -3.17774,14.72461 -0.0102,5.07292 0.62171,9.82942 1.72852,13 3.53364,10.12244 13.38298,19.71767 23.60156,22.99219 2.96211,0.9492 7.52615,1.37807 12.63672,1.1875 14.22491,-0.53043 25.48789,-7.81501 31.75,-20.53516 2.97829,-6.04977 3.25,-7.40003 3.25,-16.14453 0,-8.76642 -0.26753,-10.08511 -3.28711,-16.21875 -6.85381,-13.92208 -20.15962,-20.73511 -33.41211,-20.53711 z m 0.1875,15.7168 c 6.6457,-0.15748 13.29519,2.85463 17.61719,9.24218 6.15816,9.10125 5.21659,19.08475 -2.5293,26.79688 -2.74616,2.73419 -6.22091,5.04368 -8.6914,5.77734 -5.15867,1.53195 -7.89226,1.48796 -12.625,-0.20117 -5.59382,-1.99646 -8.47064,-4.18042 -11.47266,-8.71679 -3.70345,-5.59628 -4.37288,-14.82342 -1.48438,-20.44141 4.12728,-8.02732 11.65375,-12.27855 19.18555,-12.45703 z m -92.09766,39.03906 c -0.54728,0 -110.24906,140.21601 -116.552729,148.97266 -0.97653,1.35654 -0.25696,2.35733 4.5,6.25781 3.114319,2.5536 5.887109,4.65301 6.162109,4.66601 0.275,0.013 24.285017,-30.60094 53.35547,-68.03125 29.07045,-37.4303 53.17985,-67.67353 53.57617,-67.20898 0.39631,0.46455 11.51611,13.89375 24.71094,29.84375 53.94027,65.20334 83.6797,101.07108 84.8164,102.29492 0.96951,1.04385 2.30083,0.38945 6.8711,-3.37304 3.11817,-2.56705 5.66615,-4.94979 5.66015,-5.29493 -0.006,-0.34514 -5.40586,-7.14804 -12,-15.11914 -6.59413,-7.97111 -11.99023,-14.7237 -11.99023,-15.00586 0,-0.28217 14.17477,-14.68327 31.5,-32.00195 l 31.5,-31.48828 36.26953,36.25781 36.26953,36.25977 5.46289,-5.53125 5.46289,-5.53125 -41.73046,-41.73047 -41.73047,-41.73047 -36.75196,36.74219 -36.75195,36.74023 -43.93945,-52.99414 c -24.16717,-29.1466 -44.26868,-52.99414 -44.66993,-52.99414 z"
     id="path4173"
     inkscape:connector-curvature="0"
     sodipodi:nodetypes="ssssssssssssssssssssssssssssssscccccccccss" />
  <path
     style="fill:#000000"
     d="m 35.214345,100.2144 c -14.561124,5.14752 -27.1159756,16.10302 -32.7076356,30.66553 -4.1417,7.78145 -1.02418,17.18187 -2.02055895,25.66449 0.04976,98.91767 -1.082213,197.84236 -0.0511,296.75591 0.60201095,13.11442 -0.616145,27.92542 8.49804695,38.63672 6.4654886,8.15923 15.4782996,15.14251 25.8046866,17.26953 51.380303,1.79469 102.829056,0.77621 154.236326,1.08515 98.67473,-0.18576 197.4572,0.0266 296.06446,-0.50507 14.35289,-5.75056 27.75129,-17.36876 31.60742,-32.78711 3.34296,-25.14544 1.78739,-50.66332 2.38326,-75.96476 -0.23082,-64.91179 0.76809,-129.84301 -0.67818,-194.74227 -0.51085,-11.10343 -0.61543,-23.44993 -8.56641,-32.21484 -7.125,-9.49584 -17.63292,-17.50681 -30.0016,-17.49781 -42.56153,-2.32129 -85.23721,-0.88058 -127.8441,-1.32474 -40.75131,-0.006 -81.50261,-0.0115 -122.25391,-0.0173 -8.70705,-14.88052 -14.39739,-32.28745 -27.19922,-44.36913 -6.1259,-4.92034 -13.59589,-8.62783 -20.94531,-10.8379 -48.76156,0.1232 -97.631453,-0.245182 -146.326175,0.1836 z M 141.5913,117.20073 c 14.62191,0.66133 29.75485,-1.33906 43.88672,3.14257 10.99511,6.01093 14.62916,19.0161 20.79687,29.08204 4.0505,7.8185 8.10315,15.63589 12.15235,23.45507 82.0147,0.47099 164.13037,-0.12356 246.08489,1.05111 8.10815,0.95463 17.59528,-0.77619 24.65144,4.10709 4.10284,4.43722 9.61844,8.74674 9.47461,15.54297 2.5872,35.03991 1.01228,70.32521 1.37601,105.48433 -0.14897,58.33659 -0.28698,116.67321 -0.4307,175.00981 -4.25737,8.11354 -11.1422,16.19283 -20.24024,18.24208 -146.39424,-0.11506 -292.796,0.91537 -439.185217,-0.50016 -8.216948,0.32261 -14.384311,-7.49299 -18.83822,-13.34543 -5.740004,-7.71986 -2.152961,-17.8387 -3.172489,-26.76559 0.08001,-96.50417 -0.965923,-193.01448 -0.06601,-289.51489 0.919915,-10.58814 -0.792314,-22.12373 3.914281,-32.04569 4.893353,-5.26151 10.167422,-11.45117 18.036528,-11.40078 32.691664,-2.25385 65.637527,-1.0097 98.443937,-1.54032 1.03841,-0.001 2.07683,-0.003 3.11524,-0.004 z"
     id="path4409"
     inkscape:connector-curvature="0" />
</svg>
