<?xml version="1.0" encoding="UTF-8" standalone="no"?>
<!-- Created with Inkscape (http://www.inkscape.org/) -->

<svg
   xmlns:dc="http://purl.org/dc/elements/1.1/"
   xmlns:cc="http://creativecommons.org/ns#"
   xmlns:rdf="http://www.w3.org/1999/02/22-rdf-syntax-ns#"
   xmlns:svg="http://www.w3.org/2000/svg"
   xmlns="http://www.w3.org/2000/svg"
   xmlns:sodipodi="http://sodipodi.sourceforge.net/DTD/sodipodi-0.dtd"
   xmlns:inkscape="http://www.inkscape.org/namespaces/inkscape"
   width="196.91806mm"
   height="114.06055mm"
   viewBox="0 0 697.74116 404.15151"
   id="svg2"
   version="1.1"
   inkscape:version="0.91 r13725"
   sodipodi:docname="progressbar.svg">
  <defs
     id="defs4" />
  <sodipodi:namedview
     id="base"
     pagecolor="#ffffff"
     bordercolor="#666666"
     borderopacity="1.0"
     inkscape:pageopacity="0.0"
     inkscape:pageshadow="2"
     inkscape:zoom="0.98994948"
     inkscape:cx="100.96427"
     inkscape:cy="-52.506834"
     inkscape:document-units="px"
     inkscape:current-layer="layer1"
     showgrid="false"
     fit-margin-top="50"
     fit-margin-left="10"
     fit-margin-right="10"
     fit-margin-bottom="50"
     inkscape:window-width="2560"
     inkscape:window-height="1391"
     inkscape:window-x="0"
     inkscape:window-y="0"
     inkscape:window-maximized="1" />
  <metadata
     id="metadata7">
    <rdf:RDF>
      <cc:Work
         rdf:about="">
        <dc:format>image/svg+xml</dc:format>
        <dc:type
           rdf:resource="http://purl.org/dc/dcmitype/StillImage" />
        <dc:title></dc:title>
      </cc:Work>
    </rdf:RDF>
  </metadata>
  <g
     inkscape:label="Layer 1"
     inkscape:groupmode="layer"
     id="layer1"
     transform="translate(-1472.2521,-673.92805)">
    <path
       style="fill:#000000"
       d="m 1559.4312,904.16099 c -6.2252,-5.50885 -7.2993,-9.66672 -7.2993,-28.25443 0,-18.78254 1.2362,-23.0676 8.1219,-28.15435 3.4717,-2.56457 18.1459,-2.7175 261.1538,-2.71974 247.3154,0 257.6198,0.10941 261.1305,2.83748 5.8101,4.51421 7.5754,11.03523 7.5754,27.98377 0,16.15468 -1.3948,22.32795 -6.2037,27.45647 -2.8933,3.0854 -4.8146,3.11113 -261.9825,3.49644 -255.3031,0.38244 -259.1177,0.34402 -262.4961,-2.64564 z m 517.5948,-15.92591 c 0.7411,-1.07385 1.2873,-6.21654 1.2873,-12.12226 0,-5.90571 -0.5462,-11.04853 -1.2873,-12.12226 -0.9702,-1.40556 -15.9005,-1.86496 -60.6101,-1.86496 l -59.3228,0 0,13.98722 0,13.98722 59.3228,0 c 44.7096,0 59.6399,-0.4594 60.6101,-1.86496 z"
       id="path4149"
       inkscape:connector-curvature="0"
       sodipodi:nodetypes="sscscscsscssscccsc" />
  </g>
</svg>
