<?xml version="1.0" encoding="UTF-8" standalone="no"?>
<!-- Created with Inkscape (http://www.inkscape.org/) -->

<svg
   xmlns:dc="http://purl.org/dc/elements/1.1/"
   xmlns:cc="http://creativecommons.org/ns#"
   xmlns:rdf="http://www.w3.org/1999/02/22-rdf-syntax-ns#"
   xmlns:svg="http://www.w3.org/2000/svg"
   xmlns="http://www.w3.org/2000/svg"
   xmlns:sodipodi="http://sodipodi.sourceforge.net/DTD/sodipodi-0.dtd"
   xmlns:inkscape="http://www.inkscape.org/namespaces/inkscape"
   width="146.3224mm"
   height="182.82587mm"
   viewBox="0 0 518.46522 647.80814"
   id="svg2"
   version="1.1"
   inkscape:version="0.91 r13725"
   sodipodi:docname="radio.svg">
  <defs
     id="defs4" />
  <sodipodi:namedview
     id="base"
     pagecolor="#ffffff"
     bordercolor="#666666"
     borderopacity="1.0"
     inkscape:pageopacity="0.0"
     inkscape:pageshadow="2"
     inkscape:zoom="1.4"
     inkscape:cx="580.96955"
     inkscape:cy="320.51904"
     inkscape:document-units="px"
     inkscape:current-layer="layer1"
     showgrid="false"
     fit-margin-top="30"
     fit-margin-left="10"
     fit-margin-right="10"
     fit-margin-bottom="30"
     inkscape:window-width="2560"
     inkscape:window-height="1391"
     inkscape:window-x="0"
     inkscape:window-y="0"
     inkscape:window-maximized="1" />
  <metadata
     id="metadata7">
    <rdf:RDF>
      <cc:Work
         rdf:about="">
        <dc:format>image/svg+xml</dc:format>
        <dc:type
           rdf:resource="http://purl.org/dc/dcmitype/StillImage" />
        <dc:title></dc:title>
      </cc:Work>
    </rdf:RDF>
  </metadata>
  <g
     inkscape:label="Layer 1"
     inkscape:groupmode="layer"
     id="layer1"
     transform="translate(-107.65521,-21.660061)">
    <path
       style="fill:#000000"
       d="m 198.15622,562.24348 c -14.07659,-2.05064 -25.82957,-8.01018 -36.10095,-18.30554 -10.86155,-10.88691 -16.5388,-22.42626 -18.48985,-37.58172 -4.00551,-31.11414 17.65146,-62.26932 48.31037,-69.49807 8.13497,-1.91807 22.76091,-1.90374 30.2846,0.0297 28.98846,7.44928 48.49364,32.3831 48.44533,61.92852 -0.0188,11.50475 -1.99757,19.83687 -6.98821,29.42586 -9.76249,18.7576 -27.31948,31.12281 -48.31938,34.03083 -8.66218,1.19952 -8.7057,1.19944 -17.14191,-0.0295 z m 24.91422,-28.71704 c 11.68041,-5.46592 19.25627,-15.41799 21.65763,-28.45065 3.64125,-19.76173 -10.15661,-39.57208 -30.44189,-43.7071 -27.81245,-5.66938 -52.23356,21.45327 -43.79437,48.63903 6.98369,22.49706 31.41178,33.42388 52.57863,23.51872 z m -24.82245,-10.63839 c -5.76906,-2.05643 -10.78046,-6.58943 -13.97333,-12.63942 -2.54537,-4.82308 -2.7995,-6.1467 -2.40697,-12.5367 0.6951,-11.31569 6.54108,-19.2528 16.86259,-22.89445 11.74872,-4.1452 25.01011,1.39886 31.18873,13.03874 2.89131,5.44691 3.01034,16.36884 0.2393,21.95703 -5.78993,11.67622 -19.76733,17.40327 -31.91032,13.0748 z m 130.13509,-13.09722 c -3.50662,-1.90267 -5.77216,-6.30743 -5.72713,-11.13495 0.0439,-4.70339 1.72007,-7.84048 5.53199,-10.35332 2.85938,-1.88491 6.0609,-1.93333 128.2783,-1.93975 114.2473,-0.006 125.5909,0.13822 128.1145,1.62895 5.6775,3.35381 7.7208,11.21314 4.5229,17.39719 -3.278,6.33885 4.9518,5.97121 -132.6835,5.92723 -108.87922,-0.0348 -125.65837,-0.23468 -128.03706,-1.52535 z M 194.12049,407.87636 c -20.15046,-4.43597 -35.30853,-16.31135 -44.79182,-35.09156 -8.20763,-16.25394 -8.10473,-38.79513 0.25267,-55.35105 8.15794,-16.16079 21.3035,-27.50041 38.53915,-33.24463 5.83398,-1.94432 8.9989,-2.32386 19,-2.27845 10.27252,0.0466 13.07967,0.43085 19.5,2.66895 11.41118,3.97788 16.75336,7.37129 25.50434,16.2006 12.96558,13.08163 18.49567,26.40958 18.49567,44.57598 0,18.07082 -5.84689,32.01014 -18.91499,45.0944 -15.30794,15.32687 -37.12684,21.92946 -57.58502,17.42576 z m 29.71115,-28.30073 c 11.40802,-5.62062 18.86534,-15.79233 20.9934,-28.63477 2.65939,-16.04889 -5.97481,-32.41121 -21.00414,-39.80409 -6.25999,-3.07926 -7.31451,-3.28006 -17.18482,-3.27218 -9.83377,0.008 -10.90568,0.21185 -16.53184,3.1464 -7.40561,3.86268 -14.75356,11.54554 -18.29338,19.12714 -2.30437,4.93552 -2.66974,7.01821 -2.66974,15.21807 0,8.19986 0.36537,10.28255 2.66974,15.21807 3.18711,6.82617 10.73101,15.19101 16.23034,17.99656 8.00498,4.08384 10.93351,4.74094 20.10562,4.51133 7.92635,-0.19842 9.83777,-0.62575 15.68482,-3.50653 z M 330.0357,356.93479 c -7.25396,-3.15838 -9.97702,-13.05203 -5.24729,-19.06491 4.54646,-5.77989 -1.81872,-5.51368 131.83213,-5.51368 133.6508,0 127.2856,-0.26621 131.8321,5.51368 2.9796,3.78799 2.9796,11.18465 0,14.97264 -4.5485,5.7825 1.8543,5.51705 -132.05,5.47454 -100.92113,-0.032 -123.84166,-0.28276 -126.36694,-1.38227 z M 191.27688,253.83233 c -7.88174,-1.9858 -19.99866,-8.42868 -26.41919,-14.04777 -18.91683,-16.55551 -26.35888,-43.73861 -18.5971,-67.92838 5.91806,-18.44379 22.41611,-34.94184 40.8599,-40.8599 24.18977,-7.76178 51.37287,-0.31973 67.92838,18.5971 5.97523,6.82747 12.12158,18.71913 14.15539,27.38714 2.36936,10.09816 1.5248,26.64286 -1.81816,35.61721 -7.09391,19.04399 -20.44763,32.40088 -39.52406,39.53345 -8.52652,3.18803 -27.2316,4.05778 -36.58516,1.70115 z m 24.88351,-25.02814 c 19.4812,-5.07287 32.07929,-24.1094 28.56768,-43.16758 -2.39434,-12.9946 -9.97803,-22.98511 -21.56295,-28.40635 -21.2586,-9.94809 -45.68007,0.94538 -52.68073,23.49883 -6.46043,20.81303 6.2028,42.90719 27.6361,48.21808 6.87993,1.70475 11.0717,1.67153 18.0399,-0.14298 z m 112.33292,-26.13172 c -5.55228,-3.44587 -7.51107,-11.24754 -4.35587,-17.34902 3.27668,-6.3364 -4.91868,-5.96727 132.4831,-5.96727 137.4017,0 129.2064,-0.36913 132.4831,5.96727 3.1979,6.18405 1.1546,14.04338 -4.5229,17.39719 -2.5241,1.49102 -13.8447,1.63319 -128.1145,1.60893 -114.10717,-0.0242 -125.58129,-0.1728 -127.97293,-1.6571 z"
       id="path4488"
       inkscape:connector-curvature="0" />
  </g>
</svg>
