<svg xmlns="http://www.w3.org/2000/svg" width="48mm" height="48mm" viewBox="0 0 48 48">
    <path style="fill:none;fill-opacity:1;stroke:#000009;stroke-width:1.04241371;stroke-miterlimit:4;stroke-dasharray:none;stroke-opacity:1" d="m12.004 279.169-4.046-2.561-4.115 2.45 1.185-4.64-3.6-3.156 4.778-.307 1.889-4.4 1.768 4.45 4.768.437-3.686 3.057zM27.967 279.323l-4.046-2.56-4.114 2.449 1.185-4.64-3.601-3.156 4.779-.306 1.889-4.4 1.768 4.45 4.768.436-3.686 3.057zM43.947 279.478l-4.046-2.561-4.114 2.45 1.185-4.64-3.601-3.156 4.779-.306 1.889-4.4 1.768 4.45 4.768.436-3.686 3.057z" transform="translate(0 -249)"/>
</svg>
