<?xml version="1.0" encoding="UTF-8" standalone="no"?>
<svg
   xmlns:dc="http://purl.org/dc/elements/1.1/"
   xmlns:cc="http://creativecommons.org/ns#"
   xmlns:rdf="http://www.w3.org/1999/02/22-rdf-syntax-ns#"
   xmlns:svg="http://www.w3.org/2000/svg"
   xmlns="http://www.w3.org/2000/svg"
   xmlns:sodipodi="http://sodipodi.sourceforge.net/DTD/sodipodi-0.dtd"
   xmlns:inkscape="http://www.inkscape.org/namespaces/inkscape"
   viewBox="0 0 32 32"
   version="1.1"
   id="svg4"
   sodipodi:docname="star.svg"
   inkscape:version="0.92.5 (2060ec1f9f, 2020-04-08)">
  <metadata
     id="metadata10">
    <rdf:RDF>
      <cc:Work
         rdf:about="">
        <dc:format>image/svg+xml</dc:format>
        <dc:type
           rdf:resource="http://purl.org/dc/dcmitype/StillImage" />
      </cc:Work>
    </rdf:RDF>
  </metadata>
  <defs
     id="defs8" />
  <sodipodi:namedview
     pagecolor="#ffffff"
     bordercolor="#666666"
     borderopacity="1"
     objecttolerance="10"
     gridtolerance="10"
     guidetolerance="10"
     inkscape:pageopacity="0"
     inkscape:pageshadow="2"
     inkscape:window-width="2560"
     inkscape:window-height="1391"
     id="namedview6"
     showgrid="false"
     inkscape:zoom="7.375"
     inkscape:cx="16.271186"
     inkscape:cy="16"
     inkscape:window-x="0"
     inkscape:window-y="0"
     inkscape:window-maximized="1"
     inkscape:current-layer="svg4" />
  <path
     d="M 16 2.125 L 15.09375 4.1875 L 11.84375 11.46875 L 3.90625 12.3125 L 1.65625 12.5625 L 3.34375 14.0625 L 9.25 19.40625 L 7.59375 27.21875 L 7.125 29.40625 L 9.09375 28.28125 L 16 24.28125 L 22.90625 28.28125 L 24.875 29.40625 L 24.40625 27.21875 L 22.75 19.40625 L 28.65625 14.0625 L 30.34375 12.5625 L 28.09375 12.3125 L 20.15625 11.46875 L 16.90625 4.1875 Z M 16 7.03125 L 18.5625 12.8125 L 18.8125 13.34375 L 19.375 13.40625 L 25.65625 14.0625 L 20.96875 18.28125 L 20.53125 18.6875 L 20.65625 19.25 L 21.96875 25.40625 L 16.5 22.28125 L 16 21.96875 L 15.5 22.28125 L 10.03125 25.40625 L 11.34375 19.25 L 11.46875 18.6875 L 11.03125 18.28125 L 6.34375 14.0625 L 12.625 13.40625 L 13.1875 13.34375 L 13.4375 12.8125 Z"
     id="path2"
     style="stroke:#ffffff;stroke-opacity:1" />
</svg>
