<?xml version="1.0" encoding="UTF-8" standalone="no"?>
<!-- Created with Inkscape (http://www.inkscape.org/) -->

<svg
   xmlns:dc="http://purl.org/dc/elements/1.1/"
   xmlns:cc="http://creativecommons.org/ns#"
   xmlns:rdf="http://www.w3.org/1999/02/22-rdf-syntax-ns#"
   xmlns:svg="http://www.w3.org/2000/svg"
   xmlns="http://www.w3.org/2000/svg"
   xmlns:sodipodi="http://sodipodi.sourceforge.net/DTD/sodipodi-0.dtd"
   xmlns:inkscape="http://www.inkscape.org/namespaces/inkscape"
   width="149.84164mm"
   height="169.91537mm"
   viewBox="0 0 530.93498 602.06231"
   id="svg2"
   version="1.1"
   inkscape:version="0.91 r13725"
   sodipodi:docname="table.svg">
  <defs
     id="defs4" />
  <sodipodi:namedview
     id="base"
     pagecolor="#ffffff"
     bordercolor="#666666"
     borderopacity="1.0"
     inkscape:pageopacity="0.0"
     inkscape:pageshadow="2"
     inkscape:zoom="1.4"
     inkscape:cx="588.00429"
     inkscape:cy="303.98301"
     inkscape:document-units="px"
     inkscape:current-layer="layer1"
     showgrid="false"
     fit-margin-top="20"
     fit-margin-left="10"
     fit-margin-right="10"
     fit-margin-bottom="20"
     inkscape:window-width="2560"
     inkscape:window-height="1391"
     inkscape:window-x="0"
     inkscape:window-y="0"
     inkscape:window-maximized="1" />
  <metadata
     id="metadata7">
    <rdf:RDF>
      <cc:Work
         rdf:about="">
        <dc:format>image/svg+xml</dc:format>
        <dc:type
           rdf:resource="http://purl.org/dc/dcmitype/StillImage" />
        <dc:title></dc:title>
      </cc:Work>
    </rdf:RDF>
  </metadata>
  <g
     inkscape:label="Layer 1"
     inkscape:groupmode="layer"
     id="layer1"
     transform="translate(-100.62048,-50.869793)">
    <path
       style="fill:#000000"
       d="m 217.5849,581.76245 c -57.5339,-0.38874 -74.49836,-0.78474 -76.23966,-1.77964 -5.64408,-3.22481 -5.28719,12.18034 -5.28719,-228.22039 0,-196.4791 0.17009,-221.37635 1.53035,-224.0068 3.34315,-6.46495 -14.63921,-5.99218 228.471,-6.00669 243.4026,-0.0145 225.159,-0.49666 228.5392,6.03977 1.3831,2.67472 1.5447,26.46177 1.5219,224.02312 -0.023,195.89696 -0.1986,221.36533 -1.5475,223.97372 -3.2829,6.3484 7.0872,5.93288 -155.17034,6.21756 -81.29976,0.14264 -181.11775,0.0344 -221.81776,-0.24065 z m 63.25788,-84.75001 -0.25787,-59.75001 -59.75001,-0.25787 -59.75,-0.25787 0,60.00788 0,60.00787 60.00787,0 60.00788,0 -0.25787,-59.75 z m 145.00002,0 -0.25787,-59.75001 -59.50001,0 -59.50001,0 -0.25787,59.75001 -0.25787,59.75 60.01575,0 60.01575,0 -0.25787,-59.75 z m 145.2421,-0.25787 0,-60.00788 -59.75,0.25787 -59.74997,0.25787 -0.25787,59.75001 -0.25787,59.75 60.00791,0 60.0078,0 0,-60.00787 z m -290.49999,-144.99215 0,-59.50001 -59.75001,-0.25787 -59.75,-0.25787 0,60.01575 0,60.01575 59.75,-0.25787 59.75001,-0.25787 0,-59.50001 z m 145.50002,0 0,-60.00001 -60.00001,0 -60.00001,0 0,60.00001 0,60.00001 60.00001,0 60.00001,0 0,-60.00001 z m 144.99997,-0.008 0,-60.00788 -59.75,0.25787 -59.74997,0.258 -0.25951,58.50001 c -0.14273,32.175 -0.0444,59.06251 0.21862,59.75001 0.37509,0.98065 13.30606,1.25 60.00956,1.25 l 59.5313,0 0,-60.00788 z M 425.8428,206.5124 l 0.25787,-59.75 -132.50789,0 -132.50788,0 0,59.99623 0,59.99624 132.25001,-0.24623 132.25002,-0.24623 0.25787,-59.75001 z m 145.2421,0.25 0,-60 -60,0 -59.99997,0 0,59.33333 c 0,32.63335 0.3,59.63335 0.66667,60.00001 0.36666,0.36667 27.3667,0.66667 60,0.66667 l 59.3333,0 0,-60.00001 z"
       id="path4456"
       inkscape:connector-curvature="0" />
  </g>
</svg>
