<?xml version="1.0" encoding="UTF-8" standalone="no"?>
<!-- Created with Inkscape (http://www.inkscape.org/) -->

<svg
   xmlns:dc="http://purl.org/dc/elements/1.1/"
   xmlns:cc="http://creativecommons.org/ns#"
   xmlns:rdf="http://www.w3.org/1999/02/22-rdf-syntax-ns#"
   xmlns:svg="http://www.w3.org/2000/svg"
   xmlns="http://www.w3.org/2000/svg"
   xmlns:sodipodi="http://sodipodi.sourceforge.net/DTD/sodipodi-0.dtd"
   xmlns:inkscape="http://www.inkscape.org/namespaces/inkscape"
   width="164.49983mm"
   height="124.27901mm"
   viewBox="0 0 582.87345 440.35872"
   id="svg2"
   version="1.1"
   inkscape:version="0.91 r13725"
   sodipodi:docname="text_input.svg">
  <defs
     id="defs4" />
  <sodipodi:namedview
     id="base"
     pagecolor="#ffffff"
     bordercolor="#666666"
     borderopacity="1.0"
     inkscape:pageopacity="0.0"
     inkscape:pageshadow="2"
     inkscape:zoom="0.7"
     inkscape:cx="783.6964"
     inkscape:cy="-201.82249"
     inkscape:document-units="px"
     inkscape:current-layer="layer1"
     showgrid="false"
     fit-margin-top="20"
     fit-margin-left="10"
     fit-margin-right="10"
     fit-margin-bottom="20"
     inkscape:window-width="2560"
     inkscape:window-height="1391"
     inkscape:window-x="0"
     inkscape:window-y="0"
     inkscape:window-maximized="1" />
  <metadata
     id="metadata7">
    <rdf:RDF>
      <cc:Work
         rdf:about="">
        <dc:format>image/svg+xml</dc:format>
        <dc:type
           rdf:resource="http://purl.org/dc/dcmitype/StillImage" />
        <dc:title></dc:title>
      </cc:Work>
    </rdf:RDF>
  </metadata>
  <g
     inkscape:label="Layer 1"
     inkscape:groupmode="layer"
     id="layer1"
     transform="translate(-73.734486,-85.861551)">
    <path
       style="fill:#000000"
       d="m 276.83104,455.01126 c -12.5151,-0.56267 -12.90121,-0.64833 -15.25,-3.38305 -2.60468,-3.03266 -3.27358,-9.21176 -1.38017,-12.74963 1.72419,-3.22168 6.40059,-4.94461 13.4207,-4.94461 l 6.54966,0 0,-128.00002 0,-128.00001 -6.54966,0 c -7.02011,0 -11.69651,-1.72293 -13.4207,-4.94461 -1.89345,-3.53794 -1.22452,-9.71697 1.38025,-12.74963 2.36804,-2.75703 2.64157,-2.81444 15.75,-3.30576 7.33706,-0.275 19.34316,-0.275 26.68023,0 13.10845,0.49132 13.38197,0.54873 15.75,3.30576 3.72736,4.33967 3.33761,9.96652 -0.99012,14.29424 -3.22817,3.22817 -3.75882,3.4 -10.5,3.4 l -7.1,0 0,128.00001 0,128.00002 7.1,0 c 6.74118,0 7.27183,0.17183 10.5,3.4 4.61217,4.61216 4.79878,10.35508 0.47692,14.67692 -2.88466,2.88466 -3.07194,2.92326 -14.25,2.93673 -6.2298,0.008 -12.22692,0.1548 -13.32692,0.3273 -1.1,0.17249 -7.77809,0.0538 -14.84019,-0.26366 z m -161.34511,-43.5299 c -6.66044,-2.91992 -6.31472,2.85861 -6.31472,-105.54741 0,-108.78339 -0.37706,-102.69104 6.5343,-105.57879 4.99843,-2.08847 130.87344,-2.11336 135.86715,-0.0268 7.11885,2.97444 8.87807,11.02251 3.68101,16.83985 l -2.91756,3.26573 -61.08245,0.27254 -61.08245,0.27253 0,84.97748 0,84.97747 59.54967,0 c 50.87603,0 59.97056,0.21765 62.43931,1.4943 6.68101,3.45489 8.10034,11.13554 3.09342,16.73993 l -2.91762,3.26578 -66.83239,0.22191 c -55.37741,0.18387 -67.37834,-0.0174 -70.01767,-1.17452 z m 213.00629,-0.16068 c -2.91651,-1.4383 -6.32099,-6.49397 -6.32099,-9.38671 0,-0.65876 0.70978,-2.69348 1.57728,-4.5216 3.28156,-6.91538 -6.31827,-6.47841 142.32387,-6.47841 l 134.09889,0 0,-85.00001 0,-85 -134.09889,0 c -148.64214,0 -139.04231,0.43697 -142.32387,-6.47841 -0.8675,-1.82812 -1.57728,-3.86284 -1.57728,-4.5216 0,-0.65876 0.70978,-2.69348 1.57728,-4.5216 3.28638,-6.92553 -6.91833,-6.4784 147.85599,-6.4784 118.41437,0 140.14785,0.21595 143.03247,1.42122 6.91136,2.88775 6.5343,-3.2046 6.5343,105.57879 0,108.7834 0.37706,102.69105 -6.5343,105.5788 -2.88558,1.20567 -24.60151,1.41777 -143.1836,1.39845 -124.88718,-0.0203 -140.12088,-0.18983 -142.96115,-1.59052 z m -126.821,-50.33208 c -1.1,-0.45022 -2.9,-1.8184 -4,-3.0404 -1.90933,-2.12109 -2.01295,-3.84452 -2.28572,-38.01618 l -0.28572,-35.79438 -12.44556,-0.35185 c -12.40295,-0.35064 -12.45622,-0.3625 -15.55941,-3.4662 -5.32733,-5.3282 -4.02595,-13.68559 2.6223,-16.84039 4.75978,-2.25867 68.0877,-2.30321 72.44308,-0.051 3.96591,2.05089 6.01104,5.28501 6.01104,9.50575 0,8.23733 -5.26611,11 -20.96789,11 l -11.03212,0 -0.0222,35.75001 c -0.0201,32.36233 -0.18595,35.95212 -1.75,37.88296 -3.25885,4.02312 -8.08701,5.32111 -12.72776,3.42168 z"
       id="path4234"
       inkscape:connector-curvature="0" />
  </g>
</svg>
