<?xml version="1.0" encoding="UTF-8" standalone="no"?>
<svg
   xmlns:dc="http://purl.org/dc/elements/1.1/"
   xmlns:cc="http://creativecommons.org/ns#"
   xmlns:rdf="http://www.w3.org/1999/02/22-rdf-syntax-ns#"
   xmlns:svg="http://www.w3.org/2000/svg"
   xmlns="http://www.w3.org/2000/svg"
   xmlns:sodipodi="http://sodipodi.sourceforge.net/DTD/sodipodi-0.dtd"
   xmlns:inkscape="http://www.inkscape.org/namespaces/inkscape"
   height="4.0922971in"
   style="clip-rule:evenodd;fill-rule:evenodd;image-rendering:optimizeQuality;shape-rendering:geometricPrecision;text-rendering:geometricPrecision"
   viewBox="0 0 5.0133284 4.092297"
   width="5.0133286in"
   xml:space="preserve"
   version="1.1"
   id="svg11"
   sodipodi:docname="twitter.svg"
   inkscape:version="0.92.2 (5c3e80d, 2017-08-06)"><metadata
     id="metadata15"><rdf:RDF><cc:Work
         rdf:about=""><dc:format>image/svg+xml</dc:format><dc:type
           rdf:resource="http://purl.org/dc/dcmitype/StillImage" /><dc:title></dc:title></cc:Work></rdf:RDF></metadata><sodipodi:namedview
     pagecolor="#ffffff"
     bordercolor="#666666"
     borderopacity="1"
     objecttolerance="10"
     gridtolerance="10"
     guidetolerance="10"
     inkscape:pageopacity="0"
     inkscape:pageshadow="2"
     inkscape:window-width="2560"
     inkscape:window-height="1391"
     id="namedview13"
     showgrid="false"
     fit-margin-top="0"
     fit-margin-left="0"
     fit-margin-right="0"
     fit-margin-bottom="0"
     inkscape:zoom="0.36010777"
     inkscape:cx="223.97804"
     inkscape:cy="204.76555"
     inkscape:window-x="0"
     inkscape:window-y="0"
     inkscape:window-maximized="1"
     inkscape:current-layer="svg11" /><defs
     id="defs4"><style
       type="text/css"
       id="style2"><![CDATA[
    .fil1 {fill:none}
    .fil0 {fill:#212121;fill-rule:nonzero}
   ]]></style></defs><path
     class="fil0"
     d="m 4.8084936,0.64099 c -0.03893,0.01327 -0.07839,0.02543 -0.118327,0.03642 -0.0986,0.02714 -0.199539,0.04718 -0.301929,0.05932 l 4e-6,4.7e-5 c -0.02925,0.0035 -0.05577,-0.01744 -0.05924,-0.04669 -0.0027,-0.02301 0.0096,-0.04434 0.02928,-0.05407 0.09737,-0.05883 0.183272,-0.134677 0.253878,-0.223484 0.04123,-0.05185 0.0772,-0.108059 0.10715,-0.167811 -0.06031,0.03007 -0.122248,0.05728 -0.185693,0.08145 -0.108575,0.04136 -0.221874,0.07393 -0.339236,0.09676 l 2.1e-5,9.1e-5 c -0.01994,0.0039 -0.03945,-0.0039 -0.05148,-0.0186 C 4.0552016,0.311543 3.9484686,0.236195 3.8291616,0.18458 3.7133896,0.1345 3.5852446,0.10663 3.4505986,0.10663 c -0.262992,0 -0.501224,0.106732 -0.673697,0.279205 -0.172472,0.172472 -0.279205,0.410705 -0.279205,0.673697 0,0.03802 0.0022,0.07491 0.0063,0.110693 0.0042,0.03681 0.0103,0.07239 0.01802,0.106791 l -0.05187,0.01166 0.05204,-0.01168 c 0.0065,0.02874 -0.01161,0.05727 -0.04035,0.06372 -0.0063,0.0014 -0.01259,0.0017 -0.01865,8.5e-4 C 2.0453616,1.319896 1.6512286,1.21085 1.2984756,1.03213 0.95640758,0.858823 0.65312858,0.619965 0.40475058,0.33174 c -0.02476,0.05157 -0.04499,0.105925 -0.06023,0.162476 -0.0214,0.07941 -0.03277,0.163114 -0.03277,0.249461 0,0.162433 0.04062,0.315421 0.112115,0.449024 0.07421,0.138677 0.181739,0.256839 0.311684,0.343343 l -0.02937,0.04437 0.02955,-0.04439 c 0.02452,0.01632 0.03116,0.04943 0.01484,0.07395 -0.01148,0.01725 -0.03129,0.02565 -0.05055,0.02343 -0.08326,-0.0025 -0.163783,-0.01522 -0.240732,-0.03648 -0.05241,-0.01448 -0.103122,-0.03288 -0.151886,-0.05472 0.01557,0.199669 0.09258,0.382063 0.211996,0.528303 0.136929,0.167689 0.329496,0.287992 0.54902002,0.33248 l -0.01042,0.05208 0.01059,-0.05227 c 0.02887,0.0059 0.04753,0.034 0.04168,0.06287 -0.0044,0.0219 -0.02171,0.03792 -0.0424,0.04183 -0.04285,0.0112 -0.0876,0.01987 -0.13367702,0.0258 -0.04726,0.0061 -0.09447,0.0092 -0.140984,0.0092 -0.03239,0 -0.06582,-0.0016 -0.100476,-0.0048 l -0.0086,-8.23e-4 c 0.0669,0.15672 0.174461,0.291842 0.309437,0.392217 0.15437002,0.114803 0.34453502,0.18418 0.55067002,0.188504 l -10e-4,0.05313 0.0011,-0.05332 c 0.02945,6.14e-4 0.05282,0.02499 0.0522,0.05444 -3.83e-4,0.01837 -0.01002,0.03437 -0.02435,0.04366 -0.179189,0.139488 -0.381602,0.250185 -0.60025202,0.325315 -0.212937,0.07317 -0.441409,0.11285 -0.678988,0.11285 -0.007,0 -0.01411,-3.2e-5 -0.02122,-1.11e-4 0.16924,0.09077 0.348531,0.164713 0.535803,0.219535 0.24990602,0.07316 0.51465402,0.112429 0.78936602,0.112429 0.835287,0 1.49626,-0.317878 1.96648,-0.78802 0.553079,-0.552996 0.843091,-1.3163 0.843091,-2.02111 0,-0.0011 4.1e-5,-0.0022 1.06e-4,-0.0033 l -0.0029,-0.125835 -1.97e-4,4e-6 c -4.64e-4,-0.01991 0.01005,-0.03754 0.02602,-0.04707 0.09472,-0.06846 0.183118,-0.145193 0.264181,-0.229161 0.04011,-0.04154 0.07845,-0.08495 0.114894,-0.130083 z m -0.14624,-0.06608 c 0.09368,-0.02578 0.184417,-0.05822 0.271413,-0.09655 0.01696,-0.0096 0.03859,-0.0095 0.05591,0.002 0.0245,0.01633 0.03113,0.04945 0.01479,0.07396 -0.06895,0.103425 -0.147354,0.200638 -0.234102,0.290492 -0.07987,0.08273 -0.166756,0.158965 -0.25978,0.227783 l 0.0023,0.098 c 2.12e-4,0.0019 3.19e-4,0.0039 3.19e-4,0.0059 0,0.73124 -0.300764,1.52303 -0.874343,2.09653 -0.488862,0.488783 -1.1753,0.819272 -2.04189,0.819272 -0.284134,0 -0.558843,-0.04087 -0.81894902,-0.11702 -0.268085,-0.07849 -0.520018,-0.194342 -0.750203,-0.341423 -0.01838,-0.01008 -0.02984,-0.03054 -0.0273899968,-0.05267 C 0.00352858,3.551914 0.02994858,3.530814 0.05921858,3.534054 l -1.2e-5,9.4e-5 c 0.0391,0.0043 0.0778,0.0076 0.116228,0.0098 0.0374,0.0021 0.07648,0.0032 0.117484,0.0032 0.22565,0 0.442476,-0.03763 0.644406,-0.107016 C 1.1017026,3.383652 1.2561396,3.306266 1.3973836,3.21114 1.2241706,3.18381 1.0648956,3.11481 0.93023358,3.014656 c -0.174291,-0.12961 -0.307461,-0.311378 -0.376433,-0.522402 -0.0039,-0.0093 -0.0052,-0.01981 -0.0032,-0.03046 0.0055,-0.02895 0.03335,-0.04798 0.0623,-0.04252 l -2.4e-5,1.34e-4 c 0.03023,0.0057 0.05998,0.0099 0.08939,0.0126 0.0286,0.0026 0.05886,0.0039 0.09089,0.0039 0.01057,0 0.02106,-1.61e-4 0.03147,-4.68e-4 -0.151374,-0.06811 -0.284008,-0.170717 -0.38778,-0.297795 -0.149362,-0.182913 -0.239094,-0.416402 -0.239094,-0.67061 v -0.01202 c -5.1e-5,-0.0088 0.0021,-0.01775 0.0066,-0.02601 0.01422,-0.02579 0.04666,-0.03517 0.07245,-0.02095 l -4.3e-5,8.3e-5 c 0.06635,0.03658 0.136929,0.06595 0.210768,0.08635 0.01325,0.0037 0.02661,0.007 0.04008,0.01012 -0.07854,-0.07607 -0.145417,-0.164394 -0.197571,-0.26185 -0.07973,-0.149 -0.125035,-0.319055 -0.125035,-0.499024 0,-0.0955 0.01268,-0.188445 0.03653,-0.276957 0.024,-0.08908 0.05952,-0.173748 0.104972,-0.25211 0.0033,-0.007 0.0082,-0.01345 0.01459,-0.01869 0.02282,-0.01862 0.05642,-0.01521 0.07504,0.0076 l -0.04133,0.03371 0.04125,-0.03354 c 0.247949,0.303972 0.557705,0.554799 0.91026002,0.733421 0.322055,0.163165 0.67974,0.266063 1.05855,0.294193 -0.0026,-0.01631 -0.0049,-0.03265 -0.0068,-0.04901 -0.0047,-0.04056 -0.0071,-0.08149 -0.0071,-0.12278 0,-0.292437 0.118677,-0.557335 0.310457,-0.749114 C 2.8932006,0.118677 3.1580976,0 3.4505346,0 c 0.148823,0 0.291252,0.03115 0.42065,0.08712 0.124945,0.05405 0.237256,0.131165 0.330988,0.225638 0.100929,-0.02117 0.198925,-0.05011 0.293472,-0.08613 0.104539,-0.03983 0.204583,-0.08822 0.299496,-0.14426 0.01313,-0.0089 0.03006,-0.0118 0.0463,-0.0065 0.02802,0.0091 0.04337,0.03916 0.03429,0.06718 l -1.57e-4,-5.1e-5 c -0.04004,0.1235 -0.10152,0.236976 -0.180142,0.335862 -0.03237,0.04072 -0.06769,0.07901 -0.105646,0.114543 0.02436,-0.0057 0.0485,-0.01184 0.07241,-0.01842 z"
     id="path6"
     inkscape:connector-curvature="0"
     style="clip-rule:evenodd;fill:#212121;fill-rule:nonzero;stroke-width:1;image-rendering:optimizeQuality;shape-rendering:geometricPrecision;text-rendering:geometricPrecision" /></svg>