<svg xmlns="http://www.w3.org/2000/svg" height="392.861" style="clip-rule:evenodd;fill-rule:evenodd;image-rendering:optimizeQuality;shape-rendering:geometricPrecision;text-rendering:geometricPrecision" viewBox="0 0 5.013 4.092" width="481.28" xml:space="preserve" version="1.1" id="svg11">
    <defs id="defs4">
        <style type="text/css" id="style2">
            .fil1{fill:none}
        </style>
    </defs>
    <path d="M4.808.641a2.065 2.065 0 0 1-.42.096.053.053 0 0 1-.03-.101.956.956 0 0 0 .361-.391 2.058 2.058 0 0 1-.525.178.053.053 0 0 1-.051-.019.952.952 0 0 0-1.621.873l-.052.012.052-.012a.053.053 0 0 1-.059.065A2.904 2.904 0 0 1 .405.332a.941.941 0 0 0-.093.412.95.95 0 0 0 .424.792l-.03.044.03-.044a.053.053 0 0 1-.036.097 1.017 1.017 0 0 1-.393-.09.95.95 0 0 0 .761.86l-.01.052.01-.052a.053.053 0 0 1 0 .104 1.069 1.069 0 0 1-.375.03H.684a.958.958 0 0 0 .86.58v.054-.054a.053.053 0 0 1 .028.099 2.075 2.075 0 0 1-1.3.438 2.794 2.794 0 0 0 1.325.332c.835 0 1.496-.318 1.966-.788a2.915 2.915 0 0 0 .844-2.025l-.003-.126c-.001-.02.01-.037.025-.047a1.977 1.977 0 0 0 .38-.36zM4.662.575a1.97 1.97 0 0 0 .272-.097.053.053 0 0 1 .07.076 2.078 2.078 0 0 1-.494.519l.003.098v.005c0 .732-.3 1.524-.874 2.097-.49.489-1.176.82-2.042.82a2.91 2.91 0 0 1-1.57-.46.053.053 0 0 1 .032-.099 2.228 2.228 0 0 0 .234.013 1.98 1.98 0 0 0 1.104-.336 1.058 1.058 0 0 1-.843-.719.053.053 0 0 1 .059-.073.952.952 0 0 0 .212.016 1.066 1.066 0 0 1-.627-.968v-.012c0-.009.002-.018.006-.026a.053.053 0 0 1 .073-.02.974.974 0 0 0 .25.096 1.063 1.063 0 0 1-.18-1.29.053.053 0 0 1 .09-.011L.394.237.436.204a2.796 2.796 0 0 0 1.969 1.028 1.166 1.166 0 0 1-.014-.172A1.056 1.056 0 0 1 3.451 0a1.058 1.058 0 0 1 .751.313 1.946 1.946 0 0 0 .593-.23.053.053 0 0 1 .08.06 1.07 1.07 0 0 1-.285.45 1.93 1.93 0 0 0 .072-.018z" id="path6" style="clip-rule:evenodd;fill:#212121;fill-rule:nonzero;stroke-width:1;image-rendering:optimizeQuality;shape-rendering:geometricPrecision;text-rendering:geometricPrecision"/>
</svg>
