<?xml version="1.0" encoding="iso-8859-1"?>
<!-- Generator: Adobe Illustrator 19.0.0, SVG Export Plug-In . SVG Version: 6.00 Build 0)  -->
<svg version="1.1" id="Capa_1" xmlns="http://www.w3.org/2000/svg" xmlns:xlink="http://www.w3.org/1999/xlink" x="0px" y="0px"
	 viewBox="0 0 55 55" style="enable-background:new 0 0 55 55;" xml:space="preserve">
<g>
	<path d="M22.019,25.877C22.169,25.959,22.335,26,22.5,26c0.187,0,0.373-0.053,0.537-0.156l11-7C34.325,18.66,34.5,18.342,34.5,18
		s-0.175-0.66-0.463-0.844l-11-7c-0.31-0.195-0.697-0.208-1.019-0.033C21.699,10.299,21.5,10.635,21.5,11v14
		C21.5,25.365,21.699,25.701,22.019,25.877z M23.5,12.821L31.638,18L23.5,23.179V12.821z"/>
	<path d="M0.5,0v55h54V0H0.5z M52.5,2v33h-50V2H52.5z M2.5,53V37h50v16H2.5z"/>
	<path d="M47.5,44h-24v-2c0-0.553-0.447-1-1-1s-1,0.447-1,1v2h-4c-0.553,0-1,0.447-1,1s0.447,1,1,1h4v2c0,0.553,0.447,1,1,1
		s1-0.447,1-1v-2h24c0.553,0,1-0.447,1-1S48.053,44,47.5,44z"/>
	<path d="M7.5,41c-0.553,0-1,0.447-1,1v6c0,0.553,0.447,1,1,1s1-0.447,1-1v-6C8.5,41.447,8.053,41,7.5,41z"/>
	<path d="M11.5,41c-0.553,0-1,0.447-1,1v6c0,0.553,0.447,1,1,1s1-0.447,1-1v-6C12.5,41.447,12.053,41,11.5,41z"/>
</g>
<g>
</g>
<g>
</g>
<g>
</g>
<g>
</g>
<g>
</g>
<g>
</g>
<g>
</g>
<g>
</g>
<g>
</g>
<g>
</g>
<g>
</g>
<g>
</g>
<g>
</g>
<g>
</g>
<g>
</g>
</svg>
