<svg viewBox="0 0 24 24" xml:space="preserve" xmlns="http://www.w3.org/2000/svg">
    <path d="M12.001 20.781h-.005c-.604-.006-5.922-.063-7.675-.233-.126-.021-.206-.031-.293-.042-.642-.078-1.774-.216-2.678-1.175-.801-.823-1.055-2.385-1.098-2.689-.01-.084-.231-1.908-.231-3.786v-1.722c0-1.891.228-3.751.23-3.771.043-.311.295-1.878 1.109-2.714.967-1.026 2.068-1.133 2.598-1.184l.128-.014c3.146-.231 7.862-.233 7.909-.233s4.771.002 7.892.23l.158.017c.527.051 1.627.157 2.605 1.193.801.826 1.055 2.387 1.098 2.691.01.084.23 1.909.23 3.784v1.722c0 1.894-.229 3.754-.229 3.773-.045.311-.297 1.875-1.109 2.711-.963 1.022-2.061 1.133-2.586 1.185l-.137.015c-3.173.232-7.87.242-7.916.242zm-.006-16.762c-.047 0-4.734.002-7.839.231l-.117.012c-.502.048-1.335.129-2.101.941-.535.549-.813 1.681-.894 2.264-.001.013-.222 1.825-.222 3.667v1.722c0 1.829.215 3.607.224 3.683.081.573.359 1.701.883 2.239.709.753 1.584.859 2.163.931.136.016.229.027.339.048 1.717.165 7.332.223 7.569.225l.001.4v-.4c.046 0 4.729-.012 7.847-.239l.123-.013c.5-.05 1.33-.133 2.092-.942.533-.549.813-1.68.893-2.262.002-.013.223-1.824.223-3.669v-1.722a33.91 33.91 0 0 0-.225-3.68c-.08-.574-.357-1.701-.883-2.242-.773-.822-1.607-.902-2.105-.95l-.148-.016c-3.082-.226-7.776-.228-7.823-.228zM8.893 16.27l-.002-9.035 8.556 4.534-8.554 4.501zm.799-7.704.001 6.377 6.037-3.177-6.038-3.2z"/>
</svg>
